<svg width="16" height="17" viewBox="0 0 16 17" fill="none" xmlns="http://www.w3.org/2000/svg">
<path d="M3 1.5V2.5H2.5C1.67578 2.5 1 3.17578 1 4V13C1 13.8242 1.67578 14.5 2.5 14.5H12.5C13.3242 14.5 14 13.8242 14 13V4C14 3.17578 13.3242 2.5 12.5 2.5H12V1.5H11V2.5H4V1.5H3ZM2.5 3.5H3V4.5H4V3.5H11V4.5H12V3.5H12.5C12.7812 3.5 13 3.71875 13 4V5.5H2V4C2 3.71875 2.21875 3.5 2.5 3.5ZM2 6.5H13V13C13 13.2812 12.7812 13.5 12.5 13.5H2.5C2.21875 13.5 2 13.2812 2 13V6.5ZM8 8.5V11.5H11V8.5H8ZM9 9.5H10V10.5H9V9.5Z" fill="black"/>
</svg>
