<svg width="18" height="18" viewBox="0 0 18 18" fill="none" xmlns="http://www.w3.org/2000/svg">
<path d="M9 1.5C4.86452 1.5 1.5 4.86453 1.5 9C1.5 13.1355 4.86452 16.5 9 16.5C13.1355 16.5 16.5 13.1355 16.5 9C16.5 4.86453 13.1355 1.5 9 1.5ZM9 2.625C12.5275 2.625 15.375 5.47252 15.375 9C15.375 12.5275 12.5275 15.375 9 15.375C5.47252 15.375 2.625 12.5275 2.625 9C2.625 5.47252 5.47252 2.625 9 2.625ZM11.4324 5.99194C11.2838 5.99545 11.1427 6.05759 11.0398 6.16479L9 8.20459L6.96021 6.16479C6.90777 6.1108 6.84504 6.06788 6.77572 6.03856C6.7064 6.00925 6.6319 5.99414 6.55664 5.99414C6.44469 5.99417 6.3353 6.02759 6.24246 6.09014C6.14962 6.15269 6.07755 6.24151 6.03547 6.34525C5.9934 6.44899 5.98322 6.56292 6.00626 6.67247C6.0293 6.78202 6.0845 6.8822 6.16479 6.96021L8.20459 9L6.16479 11.0398C6.11081 11.0916 6.06771 11.1537 6.03802 11.2224C6.00833 11.2911 5.99265 11.365 5.99189 11.4399C5.99113 11.5147 6.0053 11.5889 6.03359 11.6582C6.06188 11.7275 6.10371 11.7905 6.15663 11.8434C6.20954 11.8963 6.27249 11.9381 6.34178 11.9664C6.41106 11.9947 6.4853 12.0089 6.56013 12.0081C6.63497 12.0074 6.7089 11.9917 6.77759 11.962C6.84629 11.9323 6.90837 11.8892 6.96021 11.8352L9 9.79541L11.0398 11.8352C11.0916 11.8892 11.1537 11.9323 11.2224 11.962C11.2911 11.9917 11.365 12.0074 11.4399 12.0081C11.5147 12.0089 11.5889 11.9947 11.6582 11.9664C11.7275 11.9381 11.7905 11.8963 11.8434 11.8434C11.8963 11.7905 11.9381 11.7275 11.9664 11.6582C11.9947 11.5889 12.0089 11.5147 12.0081 11.4399C12.0074 11.365 11.9917 11.2911 11.962 11.2224C11.9323 11.1537 11.8892 11.0916 11.8352 11.0398L9.79541 9L11.8352 6.96021C11.917 6.8817 11.9732 6.7803 11.9963 6.66932C12.0195 6.55833 12.0086 6.44293 11.9651 6.33825C11.9215 6.23357 11.8473 6.1445 11.7523 6.0827C11.6572 6.0209 11.5457 5.98927 11.4324 5.99194Z" fill="#7A0000"/>
</svg>
