<svg width="24" height="24" viewBox="0 0 24 24" fill="none" xmlns="http://www.w3.org/2000/svg">
<path d="M10 2.5C5.59072 2.5 2 6.08968 2 10.499C2 11.7833 2.33843 12.9825 2.87793 14.0586L2.04297 17.0508C1.81426 17.8708 2.62904 18.6864 3.44922 18.458L6.44336 17.623C6.75541 17.7794 7.07928 17.9161 7.41113 18.0352C8.85357 20.1272 11.2716 21.499 14 21.499C15.2832 21.499 16.4814 21.1616 17.5566 20.623L20.5508 21.458C21.371 21.6864 22.1857 20.8708 21.957 20.0508L21.1221 17.0586C21.6616 15.9825 22 14.7833 22 13.499C22 9.98034 19.7185 6.98664 16.5488 5.9209C15.1003 3.85642 12.7064 2.5 10 2.5ZM10 4C13.5987 4 16.5 6.90079 16.5 10.5C16.5 14.0987 13.5987 16.999 10 16.999C8.85157 16.999 7.77876 16.7005 6.84277 16.1787C6.67021 16.0825 6.46668 16.0583 6.27637 16.1113L3.6582 16.8418L4.38965 14.2256C4.44292 14.035 4.4187 13.831 4.32227 13.6582C3.79944 12.7212 3.5 11.6484 3.5 10.499C3.5 6.90037 6.40128 4 10 4ZM17.6367 8.11621C19.3621 9.28274 20.5 11.2527 20.5 13.499C20.5 14.6484 20.2006 15.7212 19.6777 16.6582C19.5813 16.831 19.5571 17.035 19.6104 17.2256L20.3418 19.8418L17.7236 19.1113C17.5333 19.0583 17.3298 19.0825 17.1572 19.1787C16.2212 19.7005 15.1484 19.999 14 19.999C12.4187 19.999 10.9809 19.4286 9.85645 18.4941C9.90442 18.4951 9.95178 18.499 10 18.499C14.4093 18.499 18 14.9093 18 10.5C18 9.67022 17.8725 8.86949 17.6367 8.11621Z" fill="black"/>
</svg>
