<svg width="24" height="24" viewBox="0 0 24 24" fill="none" xmlns="http://www.w3.org/2000/svg">
<path d="M5.20781 3.18898C5.16226 3.18875 5.11679 3.1924 5.07187 3.19991H3.99999C3.89398 3.19841 3.78873 3.218 3.69036 3.25753C3.59198 3.29706 3.50245 3.35575 3.42695 3.43018C3.35146 3.50462 3.29151 3.59332 3.25059 3.69112C3.20967 3.78893 3.1886 3.89389 3.1886 3.99991C3.1886 4.10593 3.20967 4.2109 3.25059 4.3087C3.29151 4.40651 3.35146 4.49521 3.42695 4.56964C3.50245 4.64408 3.59198 4.70276 3.69036 4.7423C3.78873 4.78183 3.89398 4.80141 3.99999 4.79991H4.45781L5.49062 18.5796C5.58372 19.8246 6.63569 20.7999 7.88437 20.7999H16.1156C17.3643 20.7999 18.4163 19.8241 18.5094 18.5796L19.5422 4.79991H20C20.106 4.80141 20.2113 4.78183 20.3096 4.7423C20.408 4.70276 20.4975 4.64408 20.573 4.56964C20.6485 4.49521 20.7085 4.40651 20.7494 4.3087C20.7903 4.2109 20.8114 4.10593 20.8114 3.99991C20.8114 3.89389 20.7903 3.78893 20.7494 3.69112C20.7085 3.59332 20.6485 3.50462 20.573 3.43018C20.4975 3.35575 20.408 3.29706 20.3096 3.25753C20.2113 3.218 20.106 3.19841 20 3.19991H18.8359H18.7562H5.32812C5.28835 3.19324 5.24813 3.18958 5.20781 3.18898ZM6.06249 4.79991H17.9375L16.9141 18.4609C16.8823 18.8852 16.5421 19.1999 16.1156 19.1999H7.88437C7.45785 19.1999 7.11763 18.8847 7.08593 18.4609L6.06249 4.79991Z" fill="black"/>
</svg>
