<svg width="18" height="18" viewBox="0 0 18 18" fill="none" xmlns="http://www.w3.org/2000/svg">
<path d="M13.5 1.87866C12.827 1.87866 12.1541 2.1338 11.644 2.64404L3.34351 10.9438C3.18602 11.1013 3.07068 11.2972 3.00953 11.5122L1.89698 15.408C1.86954 15.5044 1.86836 15.6063 1.89355 15.7033C1.91874 15.8004 1.96939 15.8889 2.04026 15.9597C2.11113 16.0306 2.19965 16.0813 2.29666 16.1065C2.39367 16.1317 2.49565 16.1305 2.59205 16.103L6.48853 14.9905L6.48926 14.9897C6.70283 14.9284 6.89821 14.8144 7.05616 14.6565L15.356 6.35596C16.3764 5.33554 16.3764 3.66446 15.356 2.64404C14.846 2.1338 14.173 1.87866 13.5 1.87866ZM13.5 2.99707C13.8828 2.99707 14.2651 3.14457 14.5598 3.43945H14.5606C15.1511 4.03003 15.1511 4.96997 14.5606 5.56055L13.8333 6.28784L11.7122 4.16675L12.4395 3.43945C12.7342 3.14457 13.1172 2.99707 13.5 2.99707ZM10.9168 4.96216L13.0378 7.08325L6.26002 13.8611C6.23803 13.8829 6.21018 13.8996 6.17872 13.9087L3.25635 14.7437L4.09131 11.8206V11.8198C4.09991 11.7896 4.11566 11.7625 4.13892 11.7393L10.9168 4.96216Z" fill="black"/>
</svg>
