<svg width="24" height="24" viewBox="0 0 24 24" fill="none" xmlns="http://www.w3.org/2000/svg">
<path d="M12 2.3999C9.95604 2.3999 8.06662 3.05476 6.51717 4.14521C6.43119 4.20564 6.35796 4.28241 6.30166 4.37114C6.24535 4.45987 6.20707 4.55883 6.18901 4.66235C6.17095 4.76587 6.17345 4.87194 6.19638 4.97449C6.2193 5.07705 6.26221 5.17408 6.32264 5.26006C6.38306 5.34603 6.45984 5.41926 6.54856 5.47557C6.63729 5.53187 6.73625 5.57015 6.83977 5.58822C6.94329 5.60628 7.04936 5.60378 7.15191 5.58085C7.25447 5.55792 7.3515 5.51502 7.43748 5.45459C8.73443 4.54184 10.2967 3.9999 12 3.9999C16.4276 3.9999 20 7.57228 20 11.9999C20 16.4275 16.4276 19.9999 12 19.9999C10.2967 19.9999 8.73443 19.458 7.43748 18.5452C7.26385 18.4232 7.04884 18.3751 6.83977 18.4116C6.6307 18.4481 6.44468 18.5661 6.32264 18.7397C6.2006 18.9134 6.15253 19.1284 6.18901 19.3375C6.22549 19.5465 6.34353 19.7325 6.51717 19.8546C8.06662 20.945 9.95604 21.5999 12 21.5999C17.2924 21.5999 21.6 17.2923 21.6 11.9999C21.6 6.70753 17.2924 2.3999 12 2.3999ZM5.58435 7.99209C5.37652 7.99828 5.17925 8.08515 5.03435 8.23428L1.90467 11.364C1.80666 11.4387 1.72725 11.5351 1.67264 11.6456C1.61803 11.7562 1.58969 11.8778 1.58984 12.0011C1.59 12.1243 1.61863 12.2459 1.67351 12.3563C1.72839 12.4667 1.80804 12.5629 1.90623 12.6374L5.03435 15.7655C5.10807 15.8423 5.19637 15.9036 5.29407 15.9458C5.39177 15.9881 5.49692 16.0104 5.60335 16.0115C5.70978 16.0125 5.81536 15.9924 5.9139 15.9521C6.01245 15.9119 6.10197 15.8524 6.17723 15.7772C6.2525 15.7019 6.31198 15.6124 6.35222 15.5138C6.39245 15.4153 6.41261 15.3097 6.41153 15.2033C6.41045 15.0968 6.38814 14.9917 6.34591 14.894C6.30368 14.7963 6.24238 14.708 6.1656 14.6343L4.33123 12.7999H12.8C12.906 12.8014 13.0112 12.7818 13.1096 12.7423C13.208 12.7028 13.2975 12.6441 13.373 12.5696C13.4485 12.4952 13.5085 12.4065 13.5494 12.3087C13.5903 12.2109 13.6114 12.1059 13.6114 11.9999C13.6114 11.8939 13.5903 11.7889 13.5494 11.6911C13.5085 11.5933 13.4485 11.5046 13.373 11.4302C13.2975 11.3557 13.208 11.297 13.1096 11.2575C13.0112 11.218 12.906 11.1984 12.8 11.1999H4.33123L6.1656 9.36553C6.28121 9.25316 6.36017 9.10848 6.39213 8.95047C6.4241 8.79245 6.40758 8.62847 6.34475 8.48C6.28192 8.33153 6.1757 8.20551 6.04001 8.11844C5.90433 8.03138 5.7455 7.98734 5.58435 7.99209Z" fill="black"/>
</svg>
