<svg width="24" height="24" viewBox="0 0 24 24" fill="none" xmlns="http://www.w3.org/2000/svg">
<g clip-path="url(#clip0_110_3401)">
<path d="M4.5 2.25V21.75H14.3394C14.0544 21.2925 13.83 20.7975 13.6875 20.25H6V3.75H13.5V8.25H18V13.0796C18.405 12.8921 18.9 12.75 19.5 12.75V7.19238L14.5576 2.25H4.5ZM15 4.80762L16.9424 6.75H15V4.80762ZM8.25 9.75V11.25H15.75V9.75H8.25ZM8.25 12.75V14.25H15.75V12.75H8.25ZM19.5 13.9761L18.9888 14.4507C18.9888 14.4507 18.2304 15.1146 17.7026 15.3428C17.1251 15.5929 16.7417 15.7431 15.7441 15.75L15 15.7559V18.8936C15 20.5731 16.1215 21.8252 17.1387 22.6479C17.6472 23.0593 18.1476 23.3737 18.5273 23.5898C18.7172 23.6979 18.8771 23.7809 18.9932 23.8389C19.0512 23.8679 19.0974 23.8899 19.1323 23.9062C19.1498 23.9144 19.1643 23.9213 19.1763 23.9268C19.1883 23.9322 19.1406 23.9164 19.2334 23.9517L19.5 24.0527L19.7666 23.9517C19.8594 23.9164 19.8117 23.9322 19.8237 23.9268C19.8357 23.9214 19.8502 23.9144 19.8677 23.9062C19.9026 23.8899 19.9488 23.8678 20.0068 23.8389C20.1229 23.7809 20.2828 23.6979 20.4727 23.5898C20.8523 23.3738 21.3528 23.0592 21.8613 22.6479C22.8785 21.8253 24 20.5743 24 18.895V15.7559L23.2559 15.75C22.2587 15.7431 21.8758 15.5925 21.2974 15.3428C20.7696 15.1146 20.0112 14.4507 20.0112 14.4507L19.5 13.9761ZM8.25 15.75V17.25H13.5V15.75H8.25ZM19.5 15.8979C19.7873 16.1484 20.0477 16.4366 20.7026 16.7197C21.1486 16.9123 21.8303 17.0022 22.5 17.0947V18.895C22.5 19.8767 21.7665 20.7957 20.918 21.4819C20.4937 21.825 20.0584 22.1001 19.7314 22.2861C19.6353 22.3408 19.5743 22.3716 19.5 22.4106C19.4257 22.3716 19.3647 22.3408 19.2686 22.2861C18.9416 22.1001 18.5063 21.8251 18.082 21.4819C17.2335 20.7956 16.5 19.8757 16.5 18.8936V17.0947C17.1697 17.0024 17.8508 16.9131 18.2974 16.7197C18.9523 16.4366 19.2127 16.1484 19.5 15.8979Z" fill="black"/>
</g>
<defs>
<clipPath id="clip0_110_3401">
<rect width="24" height="24" fill="white"/>
</clipPath>
</defs>
</svg>
