<svg width="22" height="24" viewBox="0 0 22 24" fill="none" xmlns="http://www.w3.org/2000/svg">
<path d="M11 2.25C5.69336 2.25 1.375 6.96094 1.375 12.75V20.25H7.17578C8.22046 21.1787 9.54443 21.75 11 21.75C12.4636 21.75 13.8064 21.1816 14.8672 20.25H20.625V12.75C20.625 6.96094 16.3066 2.25 11 2.25ZM11 3.75C15.5654 3.75 19.25 7.76953 19.25 12.75V18.75H16.1562C16.457 18.2578 16.688 17.7041 16.8652 17.1328C17.0667 16.7168 17.1875 16.251 17.1875 15.75C17.9475 15.75 18.5625 15.0791 18.5625 14.25V13.5C18.5625 12.6709 17.9475 12 17.1875 12V11.25C17.1875 10.2656 16.8491 9.49512 16.3066 9.14062C15.7642 8.78613 15.2566 8.81543 14.8672 8.76562C14.4778 8.71582 14.2495 8.64258 14.0938 8.46094C13.938 8.2793 13.75 7.83398 13.75 6.75H12.375C12.375 7.9043 12.0769 8.2793 11.5586 8.57812C11.0403 8.87695 10.1997 8.98535 9.28125 9C8.36279 9.01465 7.40674 8.94727 6.55273 9.14062C6.12573 9.2373 5.69336 9.41309 5.34961 9.77344C5.00586 10.1338 4.8125 10.6758 4.8125 11.25V11.5547C4.0498 11.8857 3.4375 12.5566 3.4375 13.5C3.4375 14.4814 4.0874 15.1875 4.89844 15.4922C4.98169 16.6904 5.35498 17.8037 5.92969 18.75H2.75V12.75C2.75 7.76953 6.43457 3.75 11 3.75ZM12.9336 9.28125C12.9846 9.35742 13.0491 9.4248 13.1055 9.49219C13.5942 10.0693 14.2253 10.1807 14.6953 10.2422C15.1653 10.3037 15.5171 10.3623 15.6191 10.4297C15.7212 10.4971 15.8125 10.541 15.8125 11.25V15C15.8125 15.5449 15.7373 16.0752 15.5977 16.5703C15.3533 16.9834 14.929 17.25 14.4375 17.25H12.3105C12.1709 16.8105 11.7949 16.5 11.3438 16.5C10.7744 16.5 10.3125 17.0039 10.3125 17.625C10.3125 18.2461 10.7744 18.75 11.3438 18.75H14.3945C13.5271 19.6846 12.3213 20.25 11 20.25C8.33325 20.25 6.1875 17.9092 6.1875 15V14.25H5.5C5.1106 14.25 4.8125 13.9248 4.8125 13.5C4.8125 13.0752 5.1106 12.75 5.5 12.75H6.1875V11.25C6.1875 10.9805 6.2251 10.9277 6.29492 10.8516C6.36475 10.7754 6.52856 10.6816 6.81055 10.6172C7.37451 10.4912 8.30908 10.5146 9.28125 10.5C10.2534 10.4854 11.3035 10.4355 12.2031 9.91406C12.4771 9.75586 12.7188 9.54199 12.9336 9.28125ZM8.9375 12.75C8.55884 12.75 8.25 13.0869 8.25 13.5C8.25 13.9131 8.55884 14.25 8.9375 14.25C9.31616 14.25 9.625 13.9131 9.625 13.5C9.625 13.0869 9.31616 12.75 8.9375 12.75ZM13.0625 12.75C12.6838 12.75 12.375 13.0869 12.375 13.5C12.375 13.9131 12.6838 14.25 13.0625 14.25C13.4412 14.25 13.75 13.9131 13.75 13.5C13.75 13.0869 13.4412 12.75 13.0625 12.75Z" fill="black"/>
</svg>
