<svg width="125" height="125" viewBox="0 0 125 125" fill="none" xmlns="http://www.w3.org/2000/svg">
<circle cx="62.5" cy="62.5" r="62.5" fill="black"/>
<path d="M48.0001 47C45.2506 47 43.0001 49.2505 43.0001 52V67C42.9982 67.1325 43.0227 67.2641 43.0721 67.387C43.1215 67.51 43.1949 67.6219 43.2879 67.7163C43.381 67.8107 43.4919 67.8856 43.6141 67.9368C43.7364 67.9879 43.8676 68.0142 44.0001 68.0142C44.1326 68.0142 44.2638 67.9879 44.3861 67.9368C44.5083 67.8856 44.6192 67.8107 44.7123 67.7163C44.8053 67.6219 44.8787 67.51 44.9281 67.387C44.9775 67.2641 45.002 67.1325 45.0001 67V52C45.0001 50.3315 46.3316 49 48.0001 49H78.0001C79.6686 49 81.0001 50.3315 81.0001 52V66C80.9982 66.1325 81.0227 66.2641 81.0721 66.387C81.1215 66.51 81.1949 66.6219 81.2879 66.7163C81.381 66.8107 81.4919 66.8856 81.6141 66.9368C81.7364 66.9879 81.8676 67.0142 82.0001 67.0142C82.1326 67.0142 82.2638 66.9879 82.3861 66.9368C82.5083 66.8856 82.6192 66.8107 82.7123 66.7163C82.8053 66.6219 82.8787 66.51 82.9281 66.387C82.9775 66.2641 83.002 66.1325 83.0001 66V52C83.0001 49.2505 80.7496 47 78.0001 47H48.0001ZM73.0001 53C71.7501 53 70.6853 53.5048 70.0021 54.2734C69.3188 55.0421 69.0001 56.0278 69.0001 57C69.0001 57.9722 69.3188 58.9579 70.0021 59.7266C70.6853 60.4952 71.7501 61 73.0001 61C74.2501 61 75.3149 60.4952 75.9981 59.7266C76.6814 58.9579 77.0001 57.9722 77.0001 57C77.0001 56.0278 76.6814 55.0421 75.9981 54.2734C75.3149 53.5048 74.2501 53 73.0001 53ZM73.0001 55C73.7501 55 74.1853 55.2452 74.5021 55.6016C74.8188 55.9579 75.0001 56.4722 75.0001 57C75.0001 57.5278 74.8188 58.0421 74.5021 58.3984C74.1853 58.7548 73.7501 59 73.0001 59C72.2501 59 71.8149 58.7548 71.4981 58.3984C71.1814 58.0421 71.0001 57.5278 71.0001 57C71.0001 56.4722 71.1814 55.9579 71.4981 55.6016C71.8149 55.2452 72.2501 55 73.0001 55ZM54.0001 61.9688C53.189 61.9688 52.3785 62.2888 51.7892 62.9316C51.7879 62.9329 51.7866 62.9342 51.7853 62.9355L43.2599 72.3281C43.0928 72.512 43.0002 72.7516 43.0001 73V74C43.0001 76.7495 45.2506 79 48.0001 79H69.0587C69.559 83.4901 73.3797 87 78.0001 87C82.9588 87 87.0001 82.9587 87.0001 78C87.0001 73.0413 82.9588 69 78.0001 69C73.3797 69 69.559 72.5099 69.0587 77H48.0001C46.3316 77 45.0001 75.6685 45.0001 74V73.3867L53.2638 64.2832C53.6711 63.8389 54.3311 63.8389 54.7384 64.2832L64.2638 74.6758C64.351 74.7781 64.4579 74.8617 64.5782 74.9218C64.6984 74.9818 64.8296 75.017 64.9637 75.0252C65.0979 75.0334 65.2323 75.0145 65.359 74.9696C65.4857 74.9247 65.6021 74.8547 65.7011 74.7638C65.8001 74.6729 65.8798 74.563 65.9354 74.4406C65.991 74.3182 66.0214 74.1859 66.0247 74.0515C66.028 73.9171 66.0041 73.7835 65.9546 73.6585C65.9051 73.5336 65.8309 73.4199 65.7364 73.3242L63.0567 70.3984L68.2657 67.3008C68.7428 67.0166 69.3297 66.9987 69.8224 67.2559L71.8595 68.3184C71.9762 68.3828 72.1047 68.4232 72.2373 68.4372C72.3699 68.4512 72.5039 68.4386 72.6316 68.4C72.7592 68.3615 72.8779 68.2978 72.9806 68.2127C73.0832 68.1277 73.1679 68.0229 73.2295 67.9047C73.2911 67.7864 73.3284 67.657 73.3393 67.5241C73.3501 67.3913 73.3343 67.2575 73.2927 67.1308C73.2512 67.0041 73.1847 66.887 73.0972 66.7864C73.0097 66.6858 72.903 66.6037 72.7833 66.5449L70.7481 65.4824V65.4844C70.1955 65.1959 69.5868 65.0592 68.9825 65.0762C68.3782 65.0931 67.7778 65.2631 67.2423 65.582L61.6759 68.8926L56.213 62.9316C55.6236 62.2888 54.8112 61.9688 54.0001 61.9688ZM78.0001 71C81.8779 71 85.0001 74.1222 85.0001 78C85.0001 81.8778 81.8779 85 78.0001 85C74.1223 85 71.0001 81.8778 71.0001 78C71.0001 74.1222 74.1223 71 78.0001 71ZM77.9845 73.9863C77.7196 73.9905 77.4672 74.0995 77.2826 74.2896C77.0981 74.4796 76.9965 74.7351 77.0001 75V77H75.0001C74.8676 76.9981 74.736 77.0226 74.6131 77.072C74.4901 77.1214 74.3782 77.1948 74.2838 77.2878C74.1894 77.3809 74.1145 77.4918 74.0633 77.614C74.0122 77.7363 73.9859 77.8675 73.9859 78C73.9859 78.1325 74.0122 78.2637 74.0633 78.386C74.1145 78.5082 74.1894 78.6191 74.2838 78.7122C74.3782 78.8052 74.4901 78.8786 74.6131 78.928C74.736 78.9774 74.8676 79.0019 75.0001 79H77.0001V81C76.9982 81.1325 77.0227 81.2641 77.0721 81.387C77.1215 81.51 77.1949 81.6219 77.2879 81.7163C77.381 81.8107 77.4919 81.8856 77.6141 81.9368C77.7364 81.9879 77.8676 82.0142 78.0001 82.0142C78.1326 82.0142 78.2638 81.9879 78.3861 81.9368C78.5083 81.8856 78.6192 81.8107 78.7123 81.7163C78.8053 81.6219 78.8787 81.51 78.9281 81.387C78.9775 81.2641 79.002 81.1325 79.0001 81V79H81.0001C81.1326 79.0019 81.2642 78.9774 81.3871 78.928C81.5101 78.8786 81.622 78.8052 81.7164 78.7122C81.8108 78.6191 81.8857 78.5082 81.9369 78.386C81.988 78.2637 82.0143 78.1325 82.0143 78C82.0143 77.8675 81.988 77.7363 81.9369 77.614C81.8857 77.4918 81.8108 77.3809 81.7164 77.2878C81.622 77.1948 81.5101 77.1214 81.3871 77.072C81.2642 77.0226 81.1326 76.9981 81.0001 77H79.0001V75C79.0019 74.8662 78.9769 74.7334 78.9265 74.6095C78.8761 74.4855 78.8013 74.373 78.7066 74.2785C78.6119 74.1839 78.4992 74.1094 78.3751 74.0592C78.2511 74.009 78.1183 73.9842 77.9845 73.9863Z" fill="#FDFCFB"/>
</svg>
