<svg width="16" height="16" viewBox="0 0 16 16" fill="none" xmlns="http://www.w3.org/2000/svg">
<path d="M13.6347 5.21868C13.5691 5.25975 12.0075 6.12641 12.0075 8.04801C12.0811 10.2395 13.9781 11.008 14.0107 11.008C13.9781 11.0491 13.7243 12.0549 12.9723 13.1093C12.3755 14.0176 11.7131 14.9333 10.7072 14.9333C9.75039 14.9333 9.40692 14.328 8.30292 14.328C7.11732 14.328 6.78185 14.9333 5.87412 14.9333C4.86825 14.9333 4.15679 13.9685 3.52745 13.0688C2.70985 11.8912 2.01492 10.0432 1.99039 8.26881C1.97385 7.32855 2.15412 6.40428 2.61172 5.61921C3.25759 4.52321 4.41065 3.77921 5.66985 3.75468C6.63465 3.72215 7.49332 4.41708 8.08212 4.41708C8.64639 4.41708 9.70132 3.75468 10.8949 3.75468C11.4101 3.75521 12.784 3.91041 13.6347 5.21868ZM8.00052 3.56695C7.82879 2.70828 8.30292 1.84961 8.74452 1.30188C9.30879 0.63948 10.2 0.18988 10.9685 0.18988C11.0176 1.04855 10.7067 1.89068 10.1509 2.50401C9.65225 3.16641 8.79359 3.66508 8.00052 3.56695Z" fill="white"/>
</svg>
