<svg width="42" height="42" viewBox="0 0 42 42" fill="none" xmlns="http://www.w3.org/2000/svg">
<path d="M14.4376 7C11.7953 7 9.62506 9.1702 9.62506 11.8125V16.4968L8.06647 16.9771V16.9753C6.54358 17.4436 5.24276 18.4521 4.40753 19.8088L2.23712 23.3362C2.1428 23.483 2.07871 23.6472 2.04859 23.8191C2.01847 23.9909 2.02293 24.1671 2.0617 24.3373C2.10047 24.5074 2.17278 24.6681 2.2744 24.81C2.37602 24.9519 2.50491 25.072 2.65353 25.1635C2.80214 25.255 2.96751 25.3159 3.13995 25.3427C3.31239 25.3695 3.48844 25.3616 3.6578 25.3196C3.82717 25.2775 3.98645 25.2021 4.12634 25.0978C4.26622 24.9935 4.38389 24.8623 4.47247 24.7119L6.64288 21.1846C7.14466 20.3695 7.92582 19.7666 8.83893 19.4858L9.62506 19.2432V24.8503C9.62506 25.3011 9.70073 25.7389 9.84039 26.1475C9.90419 26.3339 10.0091 26.5036 10.1475 26.6439C10.2858 26.7843 10.454 26.8917 10.6395 26.9581C10.8249 27.0246 11.023 27.0485 11.219 27.028C11.415 27.0074 11.6038 26.9431 11.7715 26.8396L19.421 22.1211C19.4261 22.1177 19.4312 22.1143 19.4363 22.1108C19.9928 21.7565 20.7022 21.8334 21.1692 22.3005C21.7355 22.8673 21.7232 23.7457 21.1419 24.2966L18.7425 26.4927C18.6479 26.5581 18.5623 26.6357 18.4879 26.7234C18.4856 26.7262 18.4833 26.7291 18.481 26.7319L12.0313 32.6296C10.9839 33.5875 9.6175 34.1185 8.19806 34.1199L3.06085 34.125C2.88693 34.1228 2.71431 34.1551 2.553 34.2202C2.3917 34.2853 2.24494 34.3818 2.12125 34.504C1.99756 34.6263 1.8994 34.772 1.83248 34.9325C1.76556 35.0931 1.73122 35.2653 1.73145 35.4392C1.73167 35.6132 1.76646 35.7853 1.8338 35.9457C1.90114 36.1061 1.99967 36.2514 2.12368 36.3734C2.24769 36.4954 2.3947 36.5915 2.55618 36.6561C2.71765 36.7208 2.89036 36.7527 3.06427 36.75L7.2735 36.7466C7.32795 36.7529 7.38275 36.7557 7.43756 36.7551L16.0748 36.75C18.149 36.7479 20.1484 35.9703 21.6785 34.571L27.9061 28.875H35.4376C38.0799 28.875 40.2501 26.7048 40.2501 24.0625V11.8125C40.2501 9.1702 38.0799 7 35.4376 7H14.4376ZM14.4376 9.625H35.4376C36.661 9.625 37.6251 10.5891 37.6251 11.8125V13.125H12.2501V11.8125C12.2501 10.5891 13.2141 9.625 14.4376 9.625ZM12.2501 15.75H37.6251V24.0625C37.6251 25.2859 36.661 26.25 35.4376 26.25H27.5814C27.5309 26.2431 27.4801 26.2391 27.4293 26.238C27.3681 26.2378 27.307 26.2418 27.2464 26.25H22.8953L22.9312 26.2175C22.937 26.2125 22.9426 26.2073 22.9483 26.2021C24.5772 24.6583 24.6114 22.0321 23.0252 20.4446C21.6989 19.1183 19.61 18.8898 18.0281 19.896L12.2501 23.4592V17.6794C12.2738 17.5369 12.2738 17.3914 12.2501 17.2488V15.75ZM20.0259 28.875H24.0164L19.9063 32.6348C18.8587 33.5928 17.4935 34.1236 16.0731 34.125L14.2838 34.1267L20.0259 28.875Z" fill="black"/>
</svg>
