<svg width="22" height="21" viewBox="0 0 22 21" fill="none" xmlns="http://www.w3.org/2000/svg">
<path d="M11 0.759766C5.21094 0.759766 0.5 5.4707 0.5 11.2598V18.7598H6.82812C7.96777 19.6885 9.41211 20.2598 11 20.2598C12.5967 20.2598 14.0615 19.6914 15.2188 18.7598H21.5V11.2598C21.5 5.4707 16.7891 0.759766 11 0.759766ZM11 2.25977C15.9805 2.25977 20 6.2793 20 11.2598V17.2598H16.625C16.9531 16.7676 17.2051 16.2139 17.3984 15.6426C17.6182 15.2266 17.75 14.7607 17.75 14.2598C18.5791 14.2598 19.25 13.5889 19.25 12.7598V12.0098C19.25 11.1807 18.5791 10.5098 17.75 10.5098V9.75977C17.75 8.77539 17.3809 8.00488 16.7891 7.65039C16.1973 7.2959 15.6436 7.3252 15.2188 7.27539C14.7939 7.22559 14.5449 7.15234 14.375 6.9707C14.2051 6.78906 14 6.34375 14 5.25977H12.5C12.5 6.41406 12.1748 6.78906 11.6094 7.08789C11.0439 7.38672 10.127 7.49512 9.125 7.50977C8.12305 7.52441 7.08008 7.45703 6.14844 7.65039C5.68262 7.74707 5.21094 7.92285 4.83594 8.2832C4.46094 8.64355 4.25 9.18555 4.25 9.75977V10.0645C3.41797 10.3955 2.75 11.0664 2.75 12.0098C2.75 12.9912 3.45898 13.6973 4.34375 14.002C4.43457 15.2002 4.8418 16.3135 5.46875 17.2598H2V11.2598C2 6.2793 6.01953 2.25977 11 2.25977ZM13.1094 7.79102C13.165 7.86719 13.2354 7.93457 13.2969 8.00195C13.8301 8.5791 14.5186 8.69043 15.0312 8.75195C15.5439 8.81348 15.9277 8.87207 16.0391 8.93945C16.1504 9.00684 16.25 9.05078 16.25 9.75977V13.5098C16.25 14.0547 16.168 14.585 16.0156 15.0801C15.749 15.4932 15.2861 15.7598 14.75 15.7598H12.4297C12.2773 15.3203 11.8672 15.0098 11.375 15.0098C10.7539 15.0098 10.25 15.5137 10.25 16.1348C10.25 16.7559 10.7539 17.2598 11.375 17.2598H14.7031C13.7568 18.1943 12.4414 18.7598 11 18.7598C8.09082 18.7598 5.75 16.4189 5.75 13.5098V12.7598H5C4.5752 12.7598 4.25 12.4346 4.25 12.0098C4.25 11.585 4.5752 11.2598 5 11.2598H5.75V9.75977C5.75 9.49023 5.79102 9.4375 5.86719 9.36133C5.94336 9.28516 6.12207 9.19141 6.42969 9.12695C7.04492 9.00098 8.06445 9.02441 9.125 9.00977C10.1855 8.99512 11.3311 8.94531 12.3125 8.42383C12.6113 8.26563 12.875 8.05176 13.1094 7.79102ZM8.75 11.2598C8.33691 11.2598 8 11.5967 8 12.0098C8 12.4229 8.33691 12.7598 8.75 12.7598C9.16309 12.7598 9.5 12.4229 9.5 12.0098C9.5 11.5967 9.16309 11.2598 8.75 11.2598ZM13.25 11.2598C12.8369 11.2598 12.5 11.5967 12.5 12.0098C12.5 12.4229 12.8369 12.7598 13.25 12.7598C13.6631 12.7598 14 12.4229 14 12.0098C14 11.5967 13.6631 11.2598 13.25 11.2598Z" fill="black"/>
</svg>
