<svg width="18" height="18" viewBox="0 0 18 18" fill="none" xmlns="http://www.w3.org/2000/svg">
<path d="M2.25 3.75C1.42275 3.75 0.75 4.42275 0.75 5.25V12.75C0.75 13.5773 1.42275 14.25 2.25 14.25H12C12.8273 14.25 13.5 13.5773 13.5 12.75V10.5615L16.0312 12.5859C16.167 12.6939 16.3328 12.75 16.5 12.75C16.6103 12.75 16.7217 12.7248 16.8252 12.6753C17.0854 12.5508 17.25 12.288 17.25 12V6C17.25 5.712 17.0854 5.44849 16.8252 5.32324C16.5657 5.19949 16.2563 5.23406 16.0312 5.41406L13.5 7.43848V5.25C13.5 4.42275 12.8273 3.75 12 3.75H2.25Z" fill="black"/>
</svg>
