<svg width="16" height="16" viewBox="0 0 16 16" fill="none" xmlns="http://www.w3.org/2000/svg">
<path d="M8 0C3.58154 0 0 3.152 0 7.04C0 9.19552 1.10359 11.1222 2.83774 12.4137C2.88202 13.3968 2.73556 14.7542 1.43149 15.38L1.42909 15.3812C1.37082 15.4043 1.32066 15.4452 1.28525 15.4985C1.24984 15.5519 1.23084 15.6152 1.23077 15.68C1.23077 15.7649 1.26319 15.8463 1.32089 15.9063C1.37859 15.9663 1.45686 16 1.53846 16C1.54581 16 1.55276 15.9988 1.5601 15.9987C1.5617 15.9988 1.5633 15.9988 1.5649 15.9987C3.06277 15.9888 4.33432 15.1469 5.21154 14.2575C5.48969 13.9753 5.87746 13.8364 6.25962 13.9113C6.81962 14.022 7.40185 14.08 8 14.08C12.4185 14.08 16 10.928 16 7.04C16 3.152 12.4185 0 8 0Z" fill="#FDFCFB"/>
</svg>
