<svg width="16" height="16" viewBox="0 0 16 16" fill="none" xmlns="http://www.w3.org/2000/svg">
<path d="M3.32704 2.6602C3.19442 2.66024 3.06482 2.69982 2.95481 2.7739C2.84481 2.84797 2.75939 2.95317 2.70949 3.07605C2.65958 3.19892 2.64746 3.33389 2.67466 3.46369C2.70186 3.59349 2.76716 3.71223 2.8622 3.80473L7.05751 8.00005L2.8622 12.1954C2.79822 12.2568 2.74713 12.3304 2.71194 12.4118C2.67675 12.4932 2.65816 12.5808 2.65726 12.6695C2.65636 12.7582 2.67316 12.8462 2.70669 12.9283C2.74021 13.0104 2.78979 13.085 2.85251 13.1478C2.91523 13.2105 2.98983 13.26 3.07195 13.2936C3.15407 13.3271 3.24205 13.3439 3.33074 13.343C3.41944 13.3421 3.50706 13.3235 3.58848 13.2883C3.6699 13.2531 3.74348 13.202 3.80491 13.1381L8.00022 8.94275L12.1955 13.1381C12.257 13.202 12.3305 13.2531 12.412 13.2883C12.4934 13.3235 12.581 13.3421 12.6697 13.343C12.7584 13.3439 12.8464 13.3271 12.9285 13.2936C13.0106 13.2601 13.0852 13.2105 13.1479 13.1478C13.2107 13.085 13.2602 13.0104 13.2938 12.9283C13.3273 12.8462 13.3441 12.7582 13.3432 12.6695C13.3423 12.5808 13.3237 12.4932 13.2885 12.4118C13.2533 12.3304 13.2022 12.2568 13.1382 12.1954L8.94293 8.00005L13.1382 3.80473C13.2346 3.71109 13.3004 3.59053 13.327 3.45885C13.3537 3.32717 13.3399 3.19052 13.2875 3.06679C13.2352 2.94307 13.1467 2.83805 13.0336 2.7655C12.9205 2.69294 12.7882 2.65624 12.6539 2.6602C12.4807 2.66536 12.3163 2.73775 12.1955 2.86202L8.00022 7.05734L3.80491 2.86202C3.74278 2.79816 3.66848 2.7474 3.58641 2.71273C3.50433 2.67807 3.41614 2.66021 3.32704 2.6602Z" fill="black"/>
</svg>
