<svg width="12" height="14" viewBox="0 0 12 14" fill="none" xmlns="http://www.w3.org/2000/svg">
<path d="M2.1665 0.333252C1.344 0.333252 0.666504 1.01075 0.666504 1.83325V12.1666C0.666504 12.9891 1.344 13.6666 2.1665 13.6666H9.83317C10.6557 13.6666 11.3332 12.9891 11.3332 12.1666V5.16658C11.3331 5.03399 11.2805 4.90683 11.1867 4.81307L11.1815 4.80786L6.85335 0.479736C6.7596 0.385968 6.63244 0.333277 6.49984 0.333252H2.1665ZM2.1665 1.33325H5.99984V4.16658C5.99984 4.98909 6.67734 5.66658 7.49984 5.66658H10.3332V12.1666C10.3332 12.4488 10.1153 12.6666 9.83317 12.6666H2.1665C1.88434 12.6666 1.6665 12.4488 1.6665 12.1666V1.83325C1.6665 1.55109 1.88434 1.33325 2.1665 1.33325ZM6.99984 2.04028L9.62614 4.66658H7.49984C7.21767 4.66658 6.99984 4.44875 6.99984 4.16658V2.04028Z" fill="black"/>
</svg>
