<svg width="10" height="18" viewBox="0 0 10 18" fill="none" xmlns="http://www.w3.org/2000/svg">
<path d="M9.54155 11.4C9.54155 12.42 9.16355 13.272 8.40756 13.956C7.65156 14.64 6.64356 15.024 5.38355 15.108V16.818C5.38355 17.07 5.28755 17.196 5.09555 17.196H4.62755C4.43555 17.196 4.33955 17.07 4.33955 16.818V15.108C3.17555 15.012 2.23955 14.694 1.53155 14.154C0.823555 13.602 0.469555 13.032 0.469555 12.444C0.469555 12.024 0.583555 11.7 0.811555 11.472C1.03955 11.244 1.31555 11.13 1.63955 11.13C2.05955 11.13 2.42555 11.292 2.73755 11.616C3.04955 11.928 3.28355 12.276 3.43955 12.66C3.60755 13.032 3.82955 13.38 4.10555 13.704C4.39355 14.016 4.72355 14.172 5.09555 14.172C5.56355 14.172 5.94755 14.004 6.24755 13.668C6.54756 13.332 6.69756 12.882 6.69756 12.318C6.69756 11.91 6.58356 11.55 6.35556 11.238C6.13956 10.926 5.85156 10.674 5.49156 10.482C5.14355 10.278 4.75355 10.086 4.32155 9.906C3.88955 9.726 3.45755 9.534 3.02555 9.33C2.59355 9.114 2.19755 8.868 1.83755 8.592C1.48955 8.304 1.20155 7.932 0.973555 7.476C0.757555 7.008 0.649555 6.468 0.649555 5.856C0.649555 4.872 1.00355 4.05 1.71155 3.39C2.41955 2.73 3.33755 2.358 4.46555 2.274V1.212C4.46555 0.972 4.56755 0.852 4.77156 0.852H5.22155C5.42555 0.852 5.52756 0.972 5.52756 1.212V2.274C6.64356 2.37 7.53755 2.664 8.20955 3.156C8.88155 3.648 9.21755 4.194 9.21755 4.794C9.21755 5.19 9.10955 5.508 8.89355 5.748C8.67755 5.976 8.37756 6.09 7.99356 6.09C7.62156 6.09 7.30356 5.934 7.03955 5.622C6.78755 5.31 6.60156 4.974 6.48156 4.614C6.37356 4.242 6.19356 3.9 5.94156 3.588C5.68956 3.276 5.37756 3.12 5.00555 3.12C4.56155 3.12 4.20755 3.276 3.94355 3.588C3.69155 3.9 3.56555 4.314 3.56555 4.83C3.56555 5.31 3.67355 5.724 3.88956 6.072C4.11755 6.42 4.40555 6.696 4.75355 6.9C5.10156 7.092 5.48556 7.272 5.90556 7.44C6.33755 7.596 6.76355 7.77 7.18356 7.962C7.61556 8.154 8.00556 8.382 8.35356 8.646C8.70156 8.91 8.98355 9.276 9.19956 9.744C9.42755 10.212 9.54155 10.764 9.54155 11.4Z" fill="black"/>
</svg>
