<svg width="124" height="124" viewBox="0 0 124 124" fill="none" xmlns="http://www.w3.org/2000/svg">
<path d="M3.875 13.5625C3.36114 13.5625 2.86833 13.7666 2.50498 14.13C2.14163 14.4933 1.9375 14.9861 1.9375 15.5V100.75C1.9375 101.264 2.14163 101.757 2.50498 102.12C2.86833 102.483 3.36114 102.687 3.875 102.687H96.1631L102.997 109.525C103.361 109.888 103.854 110.091 104.368 110.091C104.882 110.091 105.375 109.888 105.739 109.525L111.22 104.044C111.579 103.683 111.782 103.196 111.787 102.687H120.125C120.639 102.687 121.132 102.483 121.495 102.12C121.858 101.757 122.062 101.264 122.062 100.75V15.5C122.062 14.9861 121.858 14.4933 121.495 14.13C121.132 13.7666 120.639 13.5625 120.125 13.5625H3.875ZM5.8125 17.4375H118.188V98.8125H108.728L104.853 94.9375H112.375C112.889 94.9375 113.382 94.7334 113.745 94.37C114.108 94.0067 114.312 93.5139 114.312 93V23.25C114.312 22.7361 114.108 22.2433 113.745 21.88C113.382 21.5166 112.889 21.3125 112.375 21.3125H11.625C11.1111 21.3125 10.6183 21.5166 10.255 21.88C9.89163 22.2433 9.6875 22.7361 9.6875 23.25V93C9.6875 93.5139 9.89163 94.0067 10.255 94.37C10.6183 94.7334 11.1111 94.9375 11.625 94.9375H88.4131L92.2881 98.8125H5.8125V17.4375ZM13.5625 25.1875H110.438V91.0625H100.978L90.6675 80.7525C89.9407 80.0268 88.9556 79.6191 87.9285 79.6191C86.9014 79.6191 85.9163 80.0268 85.1895 80.7525L82.4478 83.4941C81.7221 84.2209 81.3145 85.2061 81.3145 86.2332C81.3145 87.2603 81.7221 88.2454 82.4478 88.9722L84.5381 91.0625H44.5625V85.25C44.5604 83.7091 43.9474 82.2318 42.8578 81.1422C41.7682 80.0526 40.2909 79.4395 38.75 79.4375H23.25C21.7091 79.4395 20.2318 80.0526 19.1422 81.1422C18.0526 82.2318 17.4396 83.7091 17.4375 85.25V91.0625H13.5625V25.1875ZM63.8429 40.3346C61.1414 40.3415 56.9941 40.9879 50.4776 42.712C43.2362 44.628 36.243 47.0685 36.173 47.0927C35.696 47.2685 35.3072 47.6247 35.0904 48.0845C34.8737 48.5443 34.8463 49.0709 35.0143 49.5507C35.1822 50.0305 35.532 50.4251 35.9882 50.6494C36.4444 50.8737 36.9705 50.9097 37.453 50.7496C37.5162 50.7273 43.8557 48.5151 50.6522 46.6764C60.9343 43.8954 64.3505 44.1106 65.3561 44.3388C65.0891 44.8432 64.764 45.3147 64.3873 45.7436C58.1602 53.2161 58.7373 59.7274 61.3539 63.3292C64.1196 67.1359 69.2193 68.2699 74.3454 66.2203C75.8753 65.6085 77.0187 65.5814 77.7436 66.1399C79.745 67.6817 79.7597 73.3191 79.4536 75.8061C79.3899 76.3159 79.5313 76.8302 79.8468 77.2358C80.1622 77.6413 80.6258 77.905 81.1357 77.9688C81.216 77.9788 81.2969 77.9839 81.3778 77.9839C81.8496 77.9833 82.305 77.8105 82.6585 77.4981C83.012 77.1856 83.2393 76.7549 83.2978 76.2867C83.4233 75.2828 84.4 66.3828 80.112 63.0733C78.8144 62.0714 76.5117 61.18 72.906 62.6225C69.4815 63.9923 66.1771 63.3766 64.4886 61.0521C62.7291 58.6302 62.5605 53.9882 67.3641 48.2242C69.413 45.7655 69.8963 43.7174 68.7997 42.1364C68.109 41.1404 66.9046 40.3268 63.8429 40.3346ZM30.9153 50.6191C30.4313 50.6403 29.9727 50.8422 29.6301 51.1848L27.6926 53.1223C27.339 53.4876 27.1432 53.9773 27.1473 54.4857C27.1515 54.994 27.3553 55.4804 27.7148 55.8399C28.0743 56.1994 28.5606 56.4032 29.069 56.4074C29.5774 56.4115 30.0671 56.2157 30.4324 55.8621L32.3699 53.9246C32.6458 53.6485 32.832 53.2955 32.9039 52.9118C32.9758 52.5281 32.9302 52.1317 32.773 51.7744C32.6157 51.4171 32.3543 51.1157 32.0228 50.9095C31.6913 50.7033 31.3053 50.6021 30.9153 50.6191ZM23.25 83.3125H38.75C39.2636 83.3132 39.756 83.5176 40.1192 83.8808C40.4824 84.244 40.6868 84.7364 40.6875 85.25V91.0625H21.3125V85.25C21.3132 84.7364 21.5176 84.244 21.8808 83.8808C22.244 83.5176 22.7364 83.3132 23.25 83.3125ZM87.9287 83.4941L107.107 102.673L104.368 105.412L85.1895 86.2334L87.9287 83.4941Z" fill="black"/>
</svg>
