<svg width="18" height="18" viewBox="0 0 18 18" fill="none" xmlns="http://www.w3.org/2000/svg">
<path d="M6 0C4.76627 0 3.75 1.01627 3.75 2.25C3.75 2.54126 3.95924 2.74349 4.06201 3H0V3.75V8.25H0.75V18H17.25V8.25H18V3H13.938C14.0408 2.74349 14.25 2.54126 14.25 2.25C14.25 1.01627 13.2337 0 12 0C10.6883 0 9.80274 0.988081 9.21826 1.81934C9.0785 2.01811 9.10953 2.02714 9 2.21338C8.89047 2.02714 8.9215 2.01811 8.78174 1.81934C8.19726 0.988081 7.31168 0 6 0ZM6 1.5C6.46957 1.5 7.08399 2.01192 7.5542 2.68066C7.66522 2.83856 7.64277 2.84976 7.73145 3H6C5.57623 3 5.25 2.67377 5.25 2.25C5.25 1.82623 5.57623 1.5 6 1.5ZM12 1.5C12.4238 1.5 12.75 1.82623 12.75 2.25C12.75 2.67377 12.4238 3 12 3H10.2686C10.3572 2.84976 10.3348 2.83856 10.4458 2.68066C10.916 2.01192 11.5304 1.5 12 1.5ZM1.5 4.5H6H7.88525H8.25V6.75H1.5V4.5ZM9.75 4.5H10.1147H12H16.5V6.75H9.75V4.5ZM2.25 8.25H8.25V16.5H2.25V8.25ZM9.75 8.25H15.75V16.5H9.75V8.25Z" fill="black"/>
</svg>
