<svg width="28" height="28" viewBox="0 0 28 28" fill="none" xmlns="http://www.w3.org/2000/svg">
<path d="M2.80001 4.4796C2.6516 4.47751 2.50425 4.50492 2.36653 4.56027C2.2288 4.61561 2.10345 4.69778 1.99776 4.80198C1.89206 4.90619 1.80813 5.03037 1.75085 5.1673C1.69356 5.30423 1.66406 5.45118 1.66406 5.5996C1.66406 5.74803 1.69356 5.89498 1.75085 6.03191C1.80813 6.16884 1.89206 6.29301 1.99776 6.39722C2.10345 6.50143 2.2288 6.5836 2.36653 6.63894C2.50425 6.69428 2.6516 6.7217 2.80001 6.7196H25.2C25.3484 6.7217 25.4958 6.69428 25.6335 6.63894C25.7712 6.5836 25.8966 6.50143 26.0023 6.39722C26.108 6.29301 26.1919 6.16884 26.2492 6.03191C26.3065 5.89498 26.336 5.74803 26.336 5.5996C26.336 5.45118 26.3065 5.30423 26.2492 5.1673C26.1919 5.03037 26.108 4.90619 26.0023 4.80198C25.8966 4.69778 25.7712 4.61561 25.6335 4.56027C25.4958 4.50492 25.3484 4.47751 25.2 4.4796H2.80001ZM2.80001 12.8796C2.6516 12.8775 2.50425 12.9049 2.36653 12.9603C2.2288 13.0156 2.10345 13.0978 1.99776 13.202C1.89206 13.3062 1.80813 13.4304 1.75085 13.5673C1.69356 13.7042 1.66406 13.8512 1.66406 13.9996C1.66406 14.148 1.69356 14.295 1.75085 14.4319C1.80813 14.5688 1.89206 14.693 1.99776 14.7972C2.10345 14.9014 2.2288 14.9836 2.36653 15.0389C2.50425 15.0943 2.6516 15.1217 2.80001 15.1196H25.2C25.3484 15.1217 25.4958 15.0943 25.6335 15.0389C25.7712 14.9836 25.8966 14.9014 26.0023 14.7972C26.108 14.693 26.1919 14.5688 26.2492 14.4319C26.3065 14.295 26.336 14.148 26.336 13.9996C26.336 13.8512 26.3065 13.7042 26.2492 13.5673C26.1919 13.4304 26.108 13.3062 26.0023 13.202C25.8966 13.0978 25.7712 13.0156 25.6335 12.9603C25.4958 12.9049 25.3484 12.8775 25.2 12.8796H2.80001ZM2.80001 21.2796C2.6516 21.2775 2.50425 21.3049 2.36653 21.3603C2.2288 21.4156 2.10345 21.4978 1.99776 21.602C1.89206 21.7062 1.80813 21.8304 1.75085 21.9673C1.69356 22.1042 1.66406 22.2512 1.66406 22.3996C1.66406 22.548 1.69356 22.695 1.75085 22.8319C1.80813 22.9688 1.89206 23.093 1.99776 23.1972C2.10345 23.3014 2.2288 23.3836 2.36653 23.4389C2.50425 23.4943 2.6516 23.5217 2.80001 23.5196H25.2C25.3484 23.5217 25.4958 23.4943 25.6335 23.4389C25.7712 23.3836 25.8966 23.3014 26.0023 23.1972C26.108 23.093 26.1919 22.9688 26.2492 22.8319C26.3065 22.695 26.336 22.548 26.336 22.3996C26.336 22.2512 26.3065 22.1042 26.2492 21.9673C26.1919 21.8304 26.108 21.7062 26.0023 21.602C25.8966 21.4978 25.7712 21.4156 25.6335 21.3603C25.4958 21.3049 25.3484 21.2775 25.2 21.2796H2.80001Z" fill="black"/>
</svg>
