<svg width="25" height="26" viewBox="0 0 25 26" fill="none" xmlns="http://www.w3.org/2000/svg">
<path d="M12.5 8.38184C15.3047 8.38184 17.5781 10.6553 17.5781 13.46C17.5781 16.2646 15.3047 18.5381 12.5 18.5381C9.69531 18.5381 7.42188 16.2646 7.42188 13.46C7.42188 10.6553 9.69531 8.38184 12.5 8.38184ZM12.5 16.9756C14.4418 16.9756 16.0156 15.4018 16.0156 13.46C16.0156 11.5182 14.4418 9.94434 12.5 9.94434C10.5582 9.94434 8.98438 11.5182 8.98438 13.46C8.98438 15.4018 10.5582 16.9756 12.5 16.9756ZM13.2812 4.08496C13.2812 4.22793 13.2812 6.28574 13.2812 6.42871C13.2812 6.86035 12.9316 7.20996 12.5 7.20996C12.0684 7.20996 11.7188 6.86035 11.7188 6.42871C11.7188 6.28574 11.7188 4.22793 11.7188 4.08496C11.7188 3.65332 12.0684 3.30371 12.5 3.30371C12.9316 3.30371 13.2812 3.65332 13.2812 4.08496ZM19.6816 7.3834C19.5805 7.48457 18.1254 8.93965 18.0242 9.04082C17.7191 9.3459 17.2246 9.3459 16.9195 9.04082C16.6145 8.73574 16.6145 8.24121 16.9195 7.93613C17.0207 7.83496 18.4758 6.37988 18.577 6.27871C18.882 5.97363 19.3766 5.97363 19.6816 6.27871C19.9867 6.58379 19.9867 7.07832 19.6816 7.3834ZM21.875 14.2412C21.732 14.2412 19.6742 14.2412 19.5312 14.2412C19.0996 14.2412 18.75 13.8916 18.75 13.46C18.75 13.0283 19.0996 12.6787 19.5312 12.6787C19.6742 12.6787 21.732 12.6787 21.875 12.6787C22.3066 12.6787 22.6562 13.0283 22.6562 13.46C22.6562 13.8916 22.3066 14.2412 21.875 14.2412ZM18.5766 20.6416C18.4754 20.5404 17.0203 19.0854 16.9191 18.9842C16.6141 18.6791 16.6141 18.1846 16.9191 17.8795C17.2242 17.5744 17.7188 17.5744 18.0238 17.8795C18.125 17.9807 19.5801 19.4357 19.6812 19.5369C19.9863 19.842 19.9863 20.3365 19.6812 20.6416C19.3762 20.9467 18.8816 20.9467 18.5766 20.6416ZM11.7188 22.835C11.7188 22.692 11.7188 20.6342 11.7188 20.4912C11.7188 20.0596 12.0684 19.71 12.5 19.71C12.9316 19.71 13.2812 20.0596 13.2812 20.4912C13.2812 20.6342 13.2812 22.692 13.2812 22.835C13.2812 23.2666 12.9316 23.6162 12.5 23.6162C12.0684 23.6162 11.7188 23.2666 11.7188 22.835ZM5.31836 19.5365C5.41953 19.4354 6.87461 17.9803 6.97578 17.8791C7.28086 17.574 7.77539 17.574 8.08047 17.8791C8.38555 18.1842 8.38555 18.6787 8.08047 18.9838C7.9793 19.085 6.52422 20.54 6.42305 20.6412C6.11797 20.9463 5.62344 20.9463 5.31836 20.6412C5.01328 20.3361 5.01328 19.8416 5.31836 19.5365ZM3.125 12.6787C3.26797 12.6787 5.32578 12.6787 5.46875 12.6787C5.90039 12.6787 6.25 13.0283 6.25 13.46C6.25 13.8916 5.90039 14.2412 5.46875 14.2412C5.32578 14.2412 3.26797 14.2412 3.125 14.2412C2.69336 14.2412 2.34375 13.8916 2.34375 13.46C2.34375 13.0283 2.69336 12.6787 3.125 12.6787ZM6.42344 6.27832C6.52461 6.37949 7.97969 7.83457 8.08086 7.93574C8.38594 8.24082 8.38594 8.73535 8.08086 9.04043C7.77578 9.34551 7.28125 9.34551 6.97617 9.04043C6.875 8.93926 5.41992 7.48418 5.31875 7.38301C5.01367 7.07793 5.01367 6.5834 5.31875 6.27832C5.62383 5.97324 6.11836 5.97324 6.42344 6.27832Z" fill="black"/>
</svg>
