<svg width="20" height="20" viewBox="0 0 20 20" fill="none" xmlns="http://www.w3.org/2000/svg">
<path d="M10 1.33337C7.43044 1.33337 5.33333 3.43048 5.33333 6.00004V7.33337H4C3.26333 7.33337 2.66666 7.93004 2.66666 8.66671V16.6667C2.66666 17.4034 3.26333 18 4 18H16C16.7367 18 17.3333 17.4034 17.3333 16.6667V8.66671C17.3333 7.93004 16.7367 7.33337 16 7.33337H14.6667V6.00004C14.6667 3.51443 12.6911 1.51242 10.237 1.38155C10.1616 1.35118 10.0813 1.33485 10 1.33337ZM10 2.66671C11.8491 2.66671 13.3333 4.15093 13.3333 6.00004V7.33337H6.66666V6.00004C6.66666 4.15093 8.15089 2.66671 10 2.66671Z" fill="black"/>
</svg>
