<svg width="24" height="24" viewBox="0 0 24 24" fill="none" xmlns="http://www.w3.org/2000/svg">
<path d="M6.66406 3.55273C3.86406 5.32573 2 8.441 2 12C2 15.559 3.86406 18.6743 6.66406 20.4473L7.73242 18.7578C5.49242 17.3398 4 14.847 4 12C4 9.153 5.49242 6.66019 7.73242 5.24219L6.66406 3.55273ZM17.3359 3.55273L16.2676 5.24219C18.5076 6.66019 20 9.153 20 12C20 14.847 18.5076 17.3398 16.2676 18.7578L17.3359 20.4473C20.1359 18.6743 22 15.559 22 12C22 8.441 20.1359 5.32573 17.3359 3.55273ZM8.79883 6.93164C7.11883 7.99464 6 9.865 6 12C6 14.135 7.11883 16.0044 8.79883 17.0684L9.86914 15.375C8.74914 14.665 8 13.424 8 12C8 10.576 8.74914 9.33595 9.86914 8.62695L8.79883 6.93164ZM15.2012 6.93164L14.1309 8.625C15.2509 9.335 16 10.576 16 12C16 13.424 15.2509 14.664 14.1309 15.373L15.2012 17.0684C16.8812 16.0054 18 14.135 18 12C18 9.865 16.8812 7.99564 15.2012 6.93164ZM12 10C11.4696 10 10.9609 10.2107 10.5858 10.5858C10.2107 10.9609 10 11.4696 10 12C10 12.5304 10.2107 13.0391 10.5858 13.4142C10.9609 13.7893 11.4696 14 12 14C12.5304 14 13.0391 13.7893 13.4142 13.4142C13.7893 13.0391 14 12.5304 14 12C14 11.4696 13.7893 10.9609 13.4142 10.5858C13.0391 10.2107 12.5304 10 12 10Z" fill="black"/>
</svg>
