<svg width="20" height="18" viewBox="0 0 20 18" fill="none" xmlns="http://www.w3.org/2000/svg">
<path d="M4.66406 0.552734C1.86406 2.32573 0 5.441 0 9C0 12.559 1.86406 15.6743 4.66406 17.4473L5.73242 15.7578C3.49242 14.3398 2 11.847 2 9C2 6.153 3.49242 3.66019 5.73242 2.24219L4.66406 0.552734ZM15.3359 0.552734L14.2676 2.24219C16.5076 3.66019 18 6.153 18 9C18 11.847 16.5076 14.3398 14.2676 15.7578L15.3359 17.4473C18.1359 15.6743 20 12.559 20 9C20 5.441 18.1359 2.32573 15.3359 0.552734ZM6.79883 3.93164C5.11883 4.99464 4 6.865 4 9C4 11.135 5.11883 13.0044 6.79883 14.0684L7.86914 12.375C6.74914 11.665 6 10.424 6 9C6 7.576 6.74914 6.33595 7.86914 5.62695L6.79883 3.93164ZM13.2012 3.93164L12.1309 5.625C13.2509 6.335 14 7.576 14 9C14 10.424 13.2509 11.664 12.1309 12.373L13.2012 14.0684C14.8812 13.0054 16 11.135 16 9C16 6.865 14.8812 4.99564 13.2012 3.93164ZM10 7C9.46957 7 8.96086 7.21071 8.58579 7.58579C8.21071 7.96086 8 8.46957 8 9C8 9.53043 8.21071 10.0391 8.58579 10.4142C8.96086 10.7893 9.46957 11 10 11C10.5304 11 11.0391 10.7893 11.4142 10.4142C11.7893 10.0391 12 9.53043 12 9C12 8.46957 11.7893 7.96086 11.4142 7.58579C11.0391 7.21071 10.5304 7 10 7Z" fill="black"/>
</svg>
