<svg width="16" height="16" viewBox="0 0 16 16" fill="none" xmlns="http://www.w3.org/2000/svg">
<g clip-path="url(#clip0_822_29016)">
<path d="M7.9954 3C4.2222 3 0.897585 5.61531 0.0155862 9.04232C-0.0173932 9.17078 0.00201032 9.30709 0.0695283 9.42124C0.137046 9.5354 0.247148 9.61806 0.375612 9.65104C0.504076 9.68402 0.64038 9.66462 0.754538 9.5971C0.868696 9.52958 0.951357 9.41948 0.984336 9.29102C1.74434 6.33803 4.68861 4 7.9954 4C11.3022 4 14.2558 6.33885 15.0156 9.29102C15.0486 9.41948 15.1312 9.52958 15.2454 9.5971C15.3595 9.66462 15.4958 9.68402 15.6243 9.65104C15.7528 9.61806 15.8629 9.5354 15.9304 9.42124C15.9979 9.30709 16.0173 9.17078 15.9843 9.04232C15.1021 5.61448 11.7686 3 7.9954 3ZM8.00061 5.66667C6.22726 5.66667 4.77926 7.11467 4.77926 8.88802C4.77926 10.6614 6.22726 12.11 8.00061 12.11C9.77397 12.11 11.2226 10.6614 11.2226 8.88802C11.2226 7.11467 9.77397 5.66667 8.00061 5.66667ZM8.00061 6.66667C9.23353 6.66667 10.2226 7.65511 10.2226 8.88802C10.2226 10.1209 9.23353 11.11 8.00061 11.11C6.7677 11.11 5.77926 10.1209 5.77926 8.88802C5.77926 7.65511 6.7677 6.66667 8.00061 6.66667Z" fill="#5B5B5B"/>
</g>
<defs>
<clipPath id="clip0_822_29016">
<rect width="16" height="16" fill="white"/>
</clipPath>
</defs>
</svg>
