<svg width="16" height="16" viewBox="0 0 16 16" fill="none" xmlns="http://www.w3.org/2000/svg">
<path d="M7.99671 2C5.56301 2 3.3206 3.09304 1.79554 4.78125C1.75151 4.82998 1.71751 4.88691 1.69548 4.94878C1.67345 5.01066 1.66382 5.07626 1.66715 5.14186C1.67047 5.20745 1.68668 5.27175 1.71486 5.33107C1.74303 5.3904 1.78261 5.4436 1.83135 5.48763C1.92977 5.57655 2.05948 5.62274 2.19195 5.61602C2.25754 5.6127 2.32184 5.59649 2.38117 5.56831C2.4405 5.54014 2.49369 5.50056 2.53773 5.45182C3.87933 3.9667 5.86374 3 7.99671 3C10.1297 3 12.1179 3.96713 13.4629 5.45247C13.5063 5.5032 13.5596 5.54469 13.6194 5.57451C13.6792 5.60432 13.7443 5.62185 13.811 5.62605C13.8777 5.63025 13.9445 5.62105 14.0076 5.59898C14.0707 5.57692 14.1287 5.54243 14.1782 5.49757C14.2277 5.45271 14.2678 5.39838 14.2959 5.33779C14.3241 5.2772 14.3398 5.21158 14.3422 5.1448C14.3446 5.07803 14.3336 5.01145 14.3098 4.94901C14.286 4.88657 14.2499 4.82952 14.2037 4.78125C12.6753 3.09326 10.4304 2 7.99671 2ZM13.4596 7.99219C13.3525 7.9977 13.25 8.0375 13.1672 8.10573C13.0844 8.17396 13.0258 8.26699 13 8.37109C12.4649 10.3781 10.3595 12 7.99671 12C5.63389 12 3.53529 10.3789 2.99996 8.37109C2.97325 8.26516 2.91257 8.1709 2.82722 8.10271C2.74186 8.03452 2.63652 7.99616 2.52731 7.99349C2.44907 7.99159 2.37148 8.00808 2.30077 8.04163C2.23007 8.07518 2.16823 8.12486 2.12022 8.18667C2.07222 8.24848 2.03939 8.3207 2.02439 8.3975C2.00938 8.47431 2.01261 8.55357 2.03382 8.62891C2.1937 9.22857 2.46314 9.78947 2.81246 10.3001L1.86325 11.0911C1.81097 11.1326 1.76752 11.1841 1.73546 11.2426C1.70339 11.3011 1.68336 11.3655 1.67654 11.4318C1.66972 11.4982 1.67625 11.5653 1.69575 11.6291C1.71525 11.6929 1.74731 11.7521 1.79006 11.8033C1.83281 11.8546 1.88538 11.8967 1.94467 11.9273C2.00396 11.9579 2.06878 11.9763 2.1353 11.9815C2.20181 11.9866 2.26869 11.9784 2.33199 11.9574C2.39529 11.9363 2.45373 11.9027 2.50387 11.8587L3.50062 11.0273C3.86268 11.4013 4.25114 11.7304 4.70309 12.0072L4.09176 13.0664C4.05891 13.1233 4.0376 13.1861 4.02903 13.2513C4.02046 13.3164 4.02481 13.3826 4.04182 13.446C4.05883 13.5095 4.08818 13.569 4.12819 13.6211C4.16819 13.6732 4.21807 13.7169 4.27498 13.7498C4.33188 13.7826 4.3947 13.8039 4.45984 13.8125C4.52498 13.821 4.59116 13.8167 4.65462 13.7996C4.71807 13.7826 4.77755 13.7532 4.82966 13.7132C4.88176 13.6732 4.92548 13.6233 4.9583 13.5664L5.59111 12.4694C6.1955 12.7195 6.8241 12.9052 7.49997 12.959V14.1667C7.49903 14.2329 7.51127 14.2987 7.53598 14.3602C7.56068 14.4217 7.59736 14.4776 7.64389 14.5248C7.69041 14.572 7.74584 14.6095 7.80697 14.635C7.8681 14.6606 7.9337 14.6738 7.99997 14.6738C8.06623 14.6738 8.13183 14.6606 8.19296 14.635C8.25409 14.6095 8.30952 14.572 8.35604 14.5248C8.40257 14.4776 8.43925 14.4217 8.46395 14.3602C8.48866 14.2987 8.5009 14.2329 8.49997 14.1667V12.9583C9.17508 12.904 9.80339 12.7182 10.4075 12.4681L11.0416 13.5664C11.0745 13.6233 11.1182 13.6732 11.1703 13.7132C11.2224 13.7532 11.2819 13.7826 11.3453 13.7996C11.4088 13.8167 11.475 13.821 11.5401 13.8125C11.6052 13.8039 11.668 13.7826 11.725 13.7498C11.7819 13.7169 11.8317 13.6732 11.8717 13.6211C11.9117 13.569 11.9411 13.5095 11.9581 13.446C11.9751 13.3826 11.9795 13.3164 11.9709 13.2513C11.9623 13.1861 11.941 13.1233 11.9082 13.0664L11.2962 12.0059C11.748 11.7293 12.1359 11.4002 12.498 11.0267L13.4961 11.8587C13.5462 11.9027 13.6046 11.9363 13.6679 11.9574C13.7312 11.9784 13.7981 11.9866 13.8646 11.9815C13.9312 11.9763 13.996 11.9579 14.0553 11.9273C14.1145 11.8967 14.1671 11.8546 14.2099 11.8033C14.2526 11.7521 14.2847 11.6929 14.3042 11.6291C14.3237 11.5653 14.3302 11.4982 14.3234 11.4318C14.3166 11.3655 14.2965 11.3011 14.2645 11.2426C14.2324 11.1841 14.189 11.1326 14.1367 11.0911L13.1868 10.2995C13.5363 9.78908 13.8063 9.22832 13.9661 8.62891C13.988 8.5524 13.9912 8.47178 13.9757 8.39376C13.9601 8.31573 13.9262 8.24254 13.8766 8.18027C13.8271 8.11801 13.7634 8.06846 13.6909 8.03575C13.6183 8.00303 13.5391 7.9881 13.4596 7.99219Z" fill="#5B5B5B"/>
</svg>
