<svg width="42" height="42" viewBox="0 0 42 42" fill="none" xmlns="http://www.w3.org/2000/svg">
<path d="M12.3491 5.25C11.5743 5.25 10.9768 5.68165 10.5171 6.23438C10.2008 6.48535 9.98105 6.83795 9.89502 7.23242L5.31152 28.458C5.28431 28.5815 5.27056 28.7075 5.27051 28.834C5.26016 28.9197 5.25 28.859 5.25 28.981C5.25 29.0181 5.28933 29.0398 5.29102 29.0767C5.33377 29.3795 5.45516 29.6659 5.64307 29.9072C6.0448 30.7888 6.77274 31.5 7.77588 31.5H11.8296L11.3647 33.708C11.3406 33.8227 11.328 33.9395 11.3271 34.0566V34.0635C11.3151 34.1537 11.3066 34.0745 11.3066 34.2207C11.3066 34.2561 11.3427 34.2779 11.3442 34.313C11.387 34.6159 11.5084 34.9022 11.6963 35.1436C12.0922 36.0305 12.813 36.75 13.8325 36.75H19.5371C19.7707 36.7503 20.002 36.7038 20.2173 36.6133C20.9023 36.4087 21.4553 35.9321 21.7656 35.3145C21.8749 35.147 21.9547 34.962 22.0015 34.7676L23.5874 28H26.0244C28.4428 28 30.7264 27.6156 32.6382 26.4141C34.55 25.2125 35.9333 23.1675 36.5073 20.4839C37.1673 17.3911 36.3009 14.7182 34.6753 13.019C33.4359 11.7235 31.8587 10.9644 30.2559 10.6675C29.8413 9.05169 28.9451 7.73226 27.8018 6.85303C26.3227 5.71563 24.5329 5.25 22.8286 5.25H12.3491ZM13.1489 8.75H22.8286C23.8753 8.75 24.9321 9.06176 25.6689 9.62842C25.9088 9.81285 25.9182 10.2786 26.103 10.5205H18.228C17.4713 10.5205 16.8674 10.944 16.4028 11.4912C16.0754 11.7477 15.85 12.1124 15.7671 12.52L13.9111 21.6597L12.5713 28H8.99268L13.1489 8.75ZM19.0347 14.0205H27.043C27.0365 14.1133 27.0444 14.2472 27.0293 14.3179C26.6102 16.28 25.7923 17.3648 24.6196 18.1152C23.447 18.8657 21.7991 19.25 19.79 19.25H17.9717L19.0347 14.0205ZM30.4575 14.7349C31.0495 14.9757 31.7161 14.9896 32.146 15.439C33.0137 16.346 33.5478 17.5882 33.0859 19.7524C32.6624 21.7326 31.8867 22.7522 30.7754 23.4507C29.664 24.1492 28.058 24.5 26.0244 24.5H22.7773C21.7866 24.5 20.9329 25.232 20.6343 25.7544C20.3357 26.2768 20.2856 26.7661 20.2856 26.7661L20.3164 26.5952L18.7612 33.25H15.0391L15.6099 30.5498C15.6838 30.4075 15.7379 30.2557 15.7705 30.0986L17.2607 22.75H19.79C22.233 22.75 24.5644 22.3077 26.5063 21.0649C28.4483 19.8222 29.8774 17.7491 30.4541 15.0493C30.4832 14.9133 30.4384 14.8664 30.4575 14.7349ZM19.1304 33.062C19.0654 33.1201 19.0048 33.1829 18.9492 33.25H18.915L19.1304 33.062ZM18.8809 33.3354C18.868 33.3534 18.8554 33.3717 18.8433 33.3901H18.8398C18.7862 33.4137 18.7337 33.4399 18.6826 33.4688L18.8809 33.3354Z" fill="black"/>
</svg>
