<svg width="16" height="16" viewBox="0 0 16 16" fill="none" xmlns="http://www.w3.org/2000/svg">
<g clip-path="url(#clip0_923_33818)">
<path d="M12.49 15.04C12.485 15.04 12.48 15.04 12.475 15.04C10.07 14.9612 7.25249 12.63 5.31124 10.6875C3.36749 8.74499 1.03624 5.92625 0.961241 3.5325C0.933741 2.6925 2.99499 1.19875 3.01624 1.18375C3.55124 0.811245 4.14499 0.943745 4.38874 1.28124C4.55374 1.50999 6.11624 3.8775 6.28624 4.14625C6.46249 4.425 6.43624 4.84 6.21624 5.25625C6.09499 5.4875 5.69249 6.19499 5.50374 6.52499C5.70749 6.81499 6.24624 7.52624 7.35874 8.63874C8.47249 9.75124 9.18249 10.2912 9.47374 10.495C9.80374 10.3062 10.5112 9.90374 10.7425 9.78249C11.1525 9.56499 11.565 9.53749 11.8462 9.71C12.1337 9.88624 14.495 11.4562 14.7125 11.6075C14.895 11.7362 15.0125 11.9562 15.0362 12.2125C15.0587 12.4712 14.9787 12.745 14.8125 12.9837C14.7987 13.0037 13.3225 15.04 12.49 15.04Z" fill="black"/>
</g>
<defs>
<clipPath id="clip0_923_33818">
<rect width="16" height="16" fill="white"/>
</clipPath>
</defs>
</svg>
