<svg width="58" height="58" viewBox="0 0 58 58" fill="none" xmlns="http://www.w3.org/2000/svg">
<path d="M29 0C26.8614 0 25.125 1.50062 24.5956 3.48H20.88H10.44C8.5318 3.48 6.95996 5.05184 6.95996 6.96V52.2C6.95996 54.1082 8.5318 55.68 10.44 55.68H47.56C49.4681 55.68 51.04 54.1082 51.04 52.2V6.96C51.04 5.05184 49.4681 3.48 47.56 3.48H37.12H33.4043C32.875 1.50062 31.1385 0 29 0ZM29 2.32C30.2953 2.32 31.32 3.34467 31.32 4.64C31.32 4.94764 31.4422 5.24267 31.6597 5.46021C31.8773 5.67775 32.1723 5.79997 32.48 5.8H35.96V8.12H22.04V5.8H25.52C25.8276 5.79997 26.1226 5.67775 26.3402 5.46021C26.5577 5.24267 26.6799 4.94764 26.68 4.64C26.68 3.34467 27.7046 2.32 29 2.32ZM10.44 5.8H19.72V9.28C19.72 9.58764 19.8422 9.88267 20.0598 10.1002C20.2773 10.3177 20.5723 10.44 20.88 10.44H37.12C37.4276 10.44 37.7226 10.3177 37.9402 10.1002C38.1577 9.88267 38.2799 9.58764 38.28 9.28V5.8H47.56C48.2154 5.8 48.72 6.30457 48.72 6.96V52.2C48.72 52.8554 48.2154 53.36 47.56 53.36H10.44C9.78453 53.36 9.27996 52.8554 9.27996 52.2V6.96C9.27996 6.30457 9.78453 5.8 10.44 5.8ZM37.1086 22.0241C36.8027 22.0314 36.5119 22.1592 36.2998 22.3798L29 29.6797L21.7001 22.3798C21.592 22.2687 21.4627 22.1804 21.3199 22.1201C21.1771 22.0598 21.0237 22.0287 20.8686 22.0287C20.6379 22.0287 20.4124 22.0976 20.221 22.2265C20.0295 22.3554 19.8809 22.5384 19.7941 22.7522C19.7073 22.966 19.6862 23.2009 19.7335 23.4267C19.7808 23.6526 19.8944 23.8592 20.0598 24.0202L27.3596 31.32L20.0598 38.6198C19.9485 38.7267 19.8596 38.8548 19.7984 38.9964C19.7371 39.1381 19.7048 39.2906 19.7032 39.4449C19.7016 39.5992 19.7309 39.7523 19.7892 39.8952C19.8475 40.0381 19.9338 40.1679 20.0429 40.277C20.1521 40.3862 20.2819 40.4724 20.4248 40.5308C20.5677 40.5891 20.7207 40.6183 20.8751 40.6168C21.0294 40.6152 21.1819 40.5828 21.3235 40.5216C21.4652 40.4604 21.5932 40.3715 21.7001 40.2602L29 32.9603L36.2998 40.2602C36.4067 40.3715 36.5347 40.4604 36.6764 40.5216C36.8181 40.5828 36.9705 40.6152 37.1248 40.6168C37.2792 40.6183 37.4323 40.5891 37.5752 40.5308C37.718 40.4724 37.8478 40.3862 37.957 40.277C38.0661 40.1679 38.1524 40.0381 38.2107 39.8952C38.269 39.7523 38.2983 39.5992 38.2967 39.4449C38.2951 39.2906 38.2628 39.1381 38.2016 38.9964C38.1403 38.8548 38.0514 38.7267 37.9401 38.6198L30.6403 31.32L37.9401 24.0202C38.1086 23.8582 38.2242 23.6491 38.2718 23.4202C38.3194 23.1914 38.2968 22.9536 38.2069 22.7378C38.117 22.5221 37.9641 22.3385 37.7681 22.2112C37.5721 22.0838 37.3423 22.0186 37.1086 22.0241Z" fill="black"/>
</svg>
