<svg width="27" height="27" viewBox="0 0 27 27" fill="none" xmlns="http://www.w3.org/2000/svg">
<path d="M11.34 1.62C6.26482 1.62 2.15997 5.72484 2.15997 10.8C2.15997 15.8752 6.26482 19.98 11.34 19.98C13.1519 19.98 14.8289 19.4484 16.2506 18.5456L22.8825 25.1775L25.1775 22.8825L18.63 16.3519C19.807 14.8078 20.52 12.8946 20.52 10.8C20.52 5.72484 16.4151 1.62 11.34 1.62ZM11.34 3.78C15.2276 3.78 18.36 6.91242 18.36 10.8C18.36 14.6876 15.2276 17.82 11.34 17.82C7.45239 17.82 4.31997 14.6876 4.31997 10.8C4.31997 6.91242 7.45239 3.78 11.34 3.78Z" fill="black"/>
</svg>
