<svg width="33" height="33" viewBox="0 0 33 33" fill="none" xmlns="http://www.w3.org/2000/svg">
<path d="M13.5996 3.09375L13.4385 3.93164L12.8262 6.99316C11.8433 7.37988 10.957 7.92371 10.1514 8.57227L7.1543 7.54102L6.34863 7.2832L5.92969 8.02441L3.86719 11.5693L3.44824 12.3105L4.06055 12.8584L6.38086 14.8887C6.29626 15.4164 6.1875 15.9441 6.1875 16.5C6.1875 17.0559 6.29626 17.5836 6.38086 18.1113L4.06055 20.1416L3.44824 20.6895L3.86719 21.4307L5.92969 24.9756L6.34863 25.7168L7.1543 25.459L10.1514 24.4277C10.957 25.0763 11.8433 25.6201 12.8262 26.0068L13.4385 29.0684L13.5996 29.9062H19.4004L19.5615 29.0684L20.1738 26.0068C21.1567 25.6201 22.043 25.0763 22.8486 24.4277L25.8457 25.459L26.6514 25.7168L27.0703 24.9756L29.1328 21.4307L29.5518 20.6895L28.9395 20.1416L26.6191 18.1113C26.7037 17.5836 26.8125 17.0559 26.8125 16.5C26.8125 15.9441 26.7037 15.4164 26.6191 14.8887L28.9395 12.8584L29.5518 12.3105L29.1328 11.5693L27.0703 8.02441L26.6514 7.2832L25.8457 7.54102L22.8486 8.57227C22.043 7.92371 21.1567 7.37988 20.1738 6.99316L19.5615 3.93164L19.4004 3.09375H13.5996ZM15.2754 5.15625H17.7246L18.2402 7.83105L18.3691 8.44336L18.9492 8.63672C20.1215 9.0033 21.1849 9.62366 22.0752 10.4414L22.5264 10.8604L23.1064 10.667L25.7168 9.76465L26.9414 11.8594L24.8789 13.6963L24.3955 14.083L24.5566 14.6953C24.6896 15.2834 24.75 15.8837 24.75 16.5C24.75 17.1163 24.6896 17.7166 24.5566 18.3047L24.4277 18.917L24.8789 19.3037L26.9414 21.1406L25.7168 23.2354L23.1064 22.333L22.5264 22.1396L22.0752 22.5586C21.1849 23.3763 20.1215 23.9967 18.9492 24.3633L18.3691 24.5566L18.2402 25.1689L17.7246 27.8438H15.2754L14.7598 25.1689L14.6309 24.5566L14.0508 24.3633C12.8785 23.9967 11.8151 23.3763 10.9248 22.5586L10.4736 22.1396L9.89355 22.333L7.2832 23.2354L6.05859 21.1406L8.12109 19.3037L8.60449 18.917L8.44336 18.3047C8.31043 17.7166 8.25 17.1163 8.25 16.5C8.25 15.8837 8.31043 15.2834 8.44336 14.6953L8.60449 14.083L8.12109 13.6963L6.05859 11.8594L7.2832 9.76465L9.89355 10.667L10.4736 10.8604L10.9248 10.4414C11.8151 9.62366 12.8785 9.0033 14.0508 8.63672L14.6309 8.44336L14.7598 7.83105L15.2754 5.15625ZM16.5 11.3438C13.6641 11.3438 11.3438 13.6641 11.3438 16.5C11.3438 19.3359 13.6641 21.6562 16.5 21.6562C19.3359 21.6562 21.6562 19.3359 21.6562 16.5C21.6562 13.6641 19.3359 11.3438 16.5 11.3438ZM16.5 13.4062C18.2201 13.4062 19.5938 14.7799 19.5938 16.5C19.5938 18.2201 18.2201 19.5938 16.5 19.5938C14.7799 19.5938 13.4062 18.2201 13.4062 16.5C13.4062 14.7799 14.7799 13.4062 16.5 13.4062Z" fill="black"/>
</svg>
