<svg width="48" height="48" viewBox="0 0 48 48" fill="none" xmlns="http://www.w3.org/2000/svg">
<path d="M4.8 6.71997C2.16 6.71997 0 8.87997 0 11.52V36.48C0 39.12 2.16 41.28 4.8 41.28H43.2C45.84 41.28 48 39.12 48 36.48V11.52C48 8.87997 45.84 6.71997 43.2 6.71997H4.8ZM4.8 8.63997H43.2C44.8013 8.63997 46.08 9.91872 46.08 11.52V36.48C46.08 38.0812 44.8013 39.36 43.2 39.36H4.8C3.19875 39.36 1.92 38.0812 1.92 36.48V11.52C1.92 9.91872 3.19875 8.63997 4.8 8.63997ZM24.87 17.28C24.2737 17.4 23.82 17.9362 23.82 18.57C23.82 19.2862 24.4125 19.86 25.14 19.86C25.8562 19.86 26.43 19.2862 26.43 18.57C26.43 17.8425 25.8562 17.28 25.14 17.28C25.05 17.28 24.9562 17.2612 24.87 17.28ZM16.14 18.42L14.04 18.78L13.74 20.64L12.99 20.76L12.72 22.47H13.74V26.07C13.74 27.0037 13.9725 27.6225 14.46 28.02C14.8687 28.35 15.435 28.53 16.26 28.53C16.8975 28.53 17.31 28.4175 17.58 28.35V26.4C17.43 26.4375 17.0887 26.52 16.86 26.52C16.3725 26.52 16.14 26.2762 16.14 25.71V22.47H17.43L17.73 20.64H16.14V18.42ZM9.75 20.49C8.91375 20.49 8.23875 20.7112 7.74 21.12C7.2225 21.5475 6.96 22.1437 6.96 22.89C6.96 24.24 7.7775 24.8325 9.12 25.32C9.98625 25.6275 10.26 25.8525 10.26 26.19C10.26 26.52 9.98625 26.7 9.48 26.7C8.85375 26.7 7.815 26.3775 7.14 25.98L6.84 27.84C7.4175 28.17 8.48625 28.53 9.6 28.53C10.485 28.53 11.235 28.2975 11.73 27.9C12.285 27.4612 12.57 26.8125 12.57 25.98C12.57 24.6 11.7413 24.0375 10.38 23.55C9.6525 23.28 9.24 23.07 9.24 22.74C9.24 22.4625 9.46125 22.32 9.87 22.32C10.6163 22.32 11.385 22.6012 11.91 22.86L12.21 21C11.7937 20.8012 10.9312 20.49 9.75 20.49ZM31.74 20.49C31.0237 20.49 30.405 20.7937 29.82 21.42L29.7 20.64H27.51V31.23L30 30.81V28.35C30.3787 28.47 30.7612 28.53 31.11 28.53C31.725 28.53 32.6025 28.3537 33.3 27.6C33.9675 26.8725 34.32 25.7512 34.32 24.27C34.32 22.9575 34.0687 21.9675 33.57 21.33C33.1312 20.7637 32.5163 20.49 31.74 20.49ZM38.67 20.49C36.5737 20.49 35.25 22.0537 35.25 24.54C35.25 25.9312 35.6138 26.9662 36.3 27.63C36.915 28.2262 37.7962 28.53 38.94 28.53C39.9937 28.53 40.965 28.2787 41.58 27.87L41.31 26.19C40.7025 26.52 40.005 26.67 39.21 26.67C38.7337 26.67 38.3962 26.58 38.16 26.37C37.9012 26.1525 37.7587 25.7962 37.71 25.29H41.79C41.8013 25.17 41.82 24.6 41.82 24.42C41.82 23.1862 41.535 22.2262 41.01 21.54C40.4737 20.8425 39.6937 20.49 38.67 20.49ZM22.47 20.52C21.7725 20.52 21.2175 20.8837 21 21.54L20.85 20.64H18.69V28.38H21.15V23.34C21.4575 22.9612 21.9037 22.83 22.5 22.83C22.6313 22.83 22.7512 22.83 22.92 22.86V20.58C22.7512 20.5425 22.62 20.52 22.47 20.52ZM23.88 20.64V28.38H26.37V20.64H23.88ZM38.43 22.17C38.4937 22.155 38.5387 22.17 38.61 22.17C39.165 22.17 39.4725 22.695 39.51 23.79H37.68C37.74 22.8262 37.9912 22.2825 38.43 22.17ZM30.93 22.38C31.5562 22.38 31.86 23.0362 31.86 24.36C31.86 25.1137 31.7587 25.7025 31.53 26.1C31.3312 26.4787 31.0162 26.67 30.66 26.67C30.4125 26.67 30.1987 26.6175 30 26.52V22.86C30.4163 22.4212 30.7913 22.38 30.93 22.38Z" fill="black"/>
</svg>
