<svg width="35" height="35" viewBox="0 0 35 35" fill="none" xmlns="http://www.w3.org/2000/svg">
<path d="M8.02083 4.01041C7.01823 4.01041 6.12778 4.42576 5.56274 5.06143C4.99771 5.6971 4.73958 6.50173 4.73958 7.29166C4.73958 8.08159 4.99771 8.88621 5.56274 9.52188C6.12778 10.1575 7.01823 10.5729 8.02083 10.5729C9.02344 10.5729 9.91388 10.1575 10.4789 9.52188C11.044 8.88621 11.3021 8.08159 11.3021 7.29166C11.3021 6.50173 11.044 5.6971 10.4789 5.06143C9.91388 4.42576 9.02344 4.01041 8.02083 4.01041ZM13.4896 4.37499C13.3446 4.37294 13.2008 4.39972 13.0663 4.45376C12.9318 4.50781 12.8093 4.58805 12.7061 4.68981C12.6029 4.79158 12.5209 4.91285 12.465 5.04657C12.4091 5.18029 12.3803 5.32379 12.3803 5.46874C12.3803 5.61369 12.4091 5.75719 12.465 5.89091C12.5209 6.02463 12.6029 6.1459 12.7061 6.24766C12.8093 6.34943 12.9318 6.42967 13.0663 6.48372C13.2008 6.53776 13.3446 6.56454 13.4896 6.56249H28.0729C28.2881 6.56249 28.4375 6.71194 28.4375 6.92707V20.4167H18.7732C18.7083 20.4055 18.6425 20.4003 18.5767 20.401C18.5232 20.4023 18.4699 20.4075 18.4172 20.4167H13.8542C13.7092 20.4146 13.5653 20.4414 13.4308 20.4954C13.2963 20.5495 13.1739 20.6297 13.0707 20.7315C12.9675 20.8332 12.8855 20.9545 12.8296 21.0882C12.7736 21.222 12.7448 21.3655 12.7448 21.5104C12.7448 21.6554 12.7736 21.7989 12.8296 21.9326C12.8855 22.0663 12.9675 22.1876 13.0707 22.2893C13.1739 22.3911 13.2963 22.4713 13.4308 22.5254C13.5653 22.5794 13.7092 22.6062 13.8542 22.6042H17.5V26.4109L14.3213 28.6354C14.1982 28.7154 14.0924 28.8193 14.0103 28.941C13.9281 29.0628 13.8714 29.1998 13.8433 29.3439C13.8153 29.488 13.8165 29.6363 13.847 29.7799C13.8775 29.9235 13.9365 30.0595 14.0207 30.1798C14.1049 30.3002 14.2124 30.4023 14.3368 30.4802C14.4613 30.558 14.6002 30.6101 14.7452 30.6331C14.8902 30.6562 15.0383 30.6498 15.1808 30.6144C15.3233 30.579 15.4572 30.5153 15.5745 30.427L18.5938 28.3136L21.613 30.427C21.7303 30.5153 21.8642 30.579 22.0067 30.6144C22.1492 30.6498 22.2973 30.6562 22.4423 30.6331C22.5873 30.6101 22.7262 30.558 22.8507 30.4802C22.9751 30.4023 23.0826 30.3002 23.1668 30.1798C23.251 30.0595 23.31 29.9235 23.3405 29.7799C23.371 29.6363 23.3722 29.488 23.3442 29.3439C23.3161 29.1998 23.2594 29.0628 23.1772 28.941C23.0951 28.8193 22.9893 28.7154 22.8662 28.6354L19.6875 26.4109V22.6042H29.3518C29.4692 22.6234 29.589 22.6234 29.7064 22.6042H30.9896C31.1345 22.6062 31.2784 22.5794 31.4129 22.5254C31.5474 22.4713 31.6698 22.3911 31.773 22.2893C31.8763 22.1876 31.9582 22.0663 32.0142 21.9326C32.0701 21.7989 32.0989 21.6554 32.0989 21.5104C32.0989 21.3655 32.0701 21.222 32.0142 21.0882C31.9582 20.9545 31.8763 20.8332 31.773 20.7315C31.6698 20.6297 31.5474 20.5495 31.4129 20.4954C31.2784 20.4414 31.1345 20.4146 30.9896 20.4167H30.625V6.92707C30.625 5.53075 29.4692 4.37499 28.0729 4.37499H13.4896ZM8.02083 6.19791C8.47656 6.19791 8.67987 6.32942 8.84399 6.51407C9.00812 6.69871 9.11458 6.98784 9.11458 7.29166C9.11458 7.59548 9.00812 7.8846 8.84399 8.06924C8.67987 8.25389 8.47656 8.38541 8.02083 8.38541C7.5651 8.38541 7.3618 8.25389 7.19767 8.06924C7.03354 7.8846 6.92708 7.59548 6.92708 7.29166C6.92708 6.98784 7.03354 6.69871 7.19767 6.51407C7.3618 6.32942 7.5651 6.19791 8.02083 6.19791ZM6.92708 11.6667C5.12786 11.6667 3.64583 13.1487 3.64583 14.9479V18.8957C3.64378 19.0406 3.67056 19.1845 3.72461 19.319C3.77865 19.4535 3.85889 19.5759 3.96066 19.6791C4.06242 19.7823 4.18369 19.8643 4.31741 19.9202C4.45113 19.9762 4.59463 20.005 4.73958 20.005C4.88453 20.005 5.02804 19.9762 5.16175 19.9202C5.29547 19.8643 5.41674 19.7823 5.51851 19.6791C5.62028 19.5759 5.70051 19.4535 5.75456 19.319C5.80861 19.1845 5.83538 19.0406 5.83333 18.8957V14.9479C5.83333 14.3307 6.30984 13.8542 6.92708 13.8542H8.02083H10.5729H19.3229C19.4679 13.8562 19.6117 13.8294 19.7462 13.7754C19.8807 13.7213 20.0032 13.6411 20.1064 13.5393C20.2096 13.4376 20.2916 13.3163 20.3475 13.1826C20.4034 13.0489 20.4322 12.9054 20.4322 12.7604C20.4322 12.6155 20.4034 12.472 20.3475 12.3382C20.2916 12.2045 20.2096 12.0832 20.1064 11.9815C20.0032 11.8797 19.8807 11.7995 19.7462 11.7454C19.6117 11.6914 19.4679 11.6646 19.3229 11.6667H10.5729H8.02083H6.92708ZM10.5558 15.3282C10.266 15.3327 9.98981 15.4521 9.78794 15.6601C9.58606 15.8681 9.47501 16.1477 9.47917 16.4376V21.875H4.91903C4.85412 21.8639 4.78834 21.8586 4.72249 21.8593C4.43936 21.8646 4.1693 21.9795 3.96912 22.1798C3.96044 22.1877 3.95189 22.1958 3.94348 22.204C3.82376 22.3264 3.73445 22.4752 3.68275 22.6385C3.63105 22.8018 3.61841 22.9749 3.64583 23.1439V29.5312C3.64378 29.6762 3.67056 29.8201 3.72461 29.9546C3.77865 30.0891 3.85889 30.2115 3.96066 30.3147C4.06242 30.4179 4.18369 30.4999 4.31741 30.5558C4.45113 30.6118 4.59463 30.6406 4.73958 30.6406C4.88453 30.6406 5.02804 30.6118 5.16175 30.5558C5.29547 30.4999 5.41674 30.4179 5.51851 30.3147C5.62028 30.2115 5.70051 30.0891 5.75456 29.9546C5.80861 29.8201 5.83538 29.6762 5.83333 29.5312V24.0625H9.47917V29.5312C9.47712 29.6762 9.50389 29.8201 9.55794 29.9546C9.61198 30.0891 9.69222 30.2115 9.79399 30.3147C9.89576 30.4179 10.017 30.4999 10.1507 30.5558C10.2845 30.6118 10.428 30.6406 10.5729 30.6406C10.7179 30.6406 10.8614 30.6118 10.9951 30.5558C11.1288 30.4999 11.2501 30.4179 11.3518 30.3147C11.4536 30.2115 11.5338 30.0891 11.5879 29.9546C11.6419 29.8201 11.6687 29.6762 11.6667 29.5312V23.1468C11.6858 23.0298 11.6858 22.9105 11.6667 22.7936V16.4376C11.6688 16.2912 11.6415 16.1459 11.5864 16.0102C11.5313 15.8746 11.4495 15.7514 11.3459 15.6479C11.2423 15.5445 11.119 15.4628 10.9833 15.4079C10.8476 15.353 10.7022 15.3259 10.5558 15.3282Z" fill="black"/>
</svg>
