<svg width="62" height="62" viewBox="0 0 62 62" fill="none" xmlns="http://www.w3.org/2000/svg">
<path d="M56.8337 31C56.8337 27.2425 54.6985 23.963 51.5817 22.307C52.4329 19.0637 51.6037 15.4573 49.072 12.927C47.1823 11.036 44.692 10.0956 42.1991 10.0956C41.3556 10.0956 40.5122 10.2028 39.692 10.4185C38.0373 7.30175 34.7578 5.16663 31.0003 5.16663C27.2429 5.16663 23.9633 7.30175 22.3074 10.4185C21.4859 10.2028 20.6437 10.0956 19.8003 10.0956C17.3074 10.0956 14.8183 11.0373 12.9273 12.927C10.397 15.4573 9.56641 19.0624 10.4176 22.307C7.30212 23.963 5.16699 27.2425 5.16699 31C5.16699 34.7574 7.30212 38.037 10.4189 39.6929C9.5677 42.9363 10.397 46.5426 12.9286 49.073C14.8183 50.9627 17.3087 51.9043 19.8016 51.9043C20.645 51.9043 21.4885 51.7971 22.3087 51.5814C23.9633 54.6982 27.2429 56.8333 31.0003 56.8333C34.7578 56.8333 38.0373 54.6982 39.6932 51.5814C40.5147 51.7971 41.3569 51.9043 42.2004 51.9043C44.6933 51.9043 47.1823 50.9627 49.0733 49.073C51.6037 46.5426 52.4342 42.9375 51.583 39.6929C54.6985 38.037 56.8337 34.7574 56.8337 31Z" fill="#1593BB"/>
<path d="M28.4163 42.4041L18.8398 32.8264L22.4927 29.1735L28.4163 35.0958L40.7982 22.7152L44.451 26.368L28.4163 42.4041Z" fill="white"/>
</svg>
