<svg width="16" height="16" viewBox="0 0 16 16" fill="none" xmlns="http://www.w3.org/2000/svg">
<path d="M8 1.5C4.41602 1.5 1.5 4.41602 1.5 8C1.5 11.584 4.41602 14.5 8 14.5C11.584 14.5 14.5 11.584 14.5 8C14.5 4.41602 11.584 1.5 8 1.5ZM8 2.5C11.043 2.5 13.5 4.95703 13.5 8C13.5 11.043 11.043 13.5 8 13.5C4.95703 13.5 2.5 11.043 2.5 8C2.5 4.95703 4.95703 2.5 8 2.5ZM11.1406 5.64062L7.5 9.28125L5.35938 7.14062L4.64062 7.85938L7.14062 10.3594L7.5 10.7031L7.85938 10.3594L11.8594 6.35938L11.1406 5.64062Z" fill="black"/>
</svg>
