<svg width="68" height="70" viewBox="0 0 68 70" fill="none" xmlns="http://www.w3.org/2000/svg">
<g filter="url(#filter0_d_522_16127)">
<path d="M33.9946 2.56006C32.8698 2.56006 31.7736 2.6344 30.6996 2.75506L30.9871 5.30006C31.9866 5.18776 32.9843 5.12006 33.9946 5.12006C48.8548 5.12006 60.8746 17.1399 60.8746 32.0001C60.8746 46.8603 48.8548 58.8801 33.9946 58.8801C32.989 58.8801 31.9975 58.8134 31.0071 58.7026L30.7221 61.2476C31.7899 61.3671 32.8779 61.4401 33.9946 61.4401C50.2384 61.4401 63.4346 48.2439 63.4346 32.0001C63.4346 15.7563 50.2384 2.56006 33.9946 2.56006ZM24.2771 4.23506C22.1792 4.96956 20.1933 5.92918 18.3421 7.09506L19.7046 9.26256C21.3938 8.19868 23.2083 7.32099 25.1246 6.65006L24.2771 4.23506ZM13.1746 11.1851C11.6117 12.748 10.2582 14.4945 9.08707 16.3551L11.2521 17.7176C12.3337 15.9992 13.5728 14.4069 14.9846 12.9951L13.1746 11.1851ZM45.7346 18.4901L31.1896 40.3051L20.7696 31.0426L19.0696 32.9576L31.6896 44.1751L47.8646 19.9101L45.7346 18.4901ZM6.22707 22.2901C5.51197 24.3326 4.99538 26.4789 4.74707 28.7151L7.29207 28.9976C7.51736 26.9687 7.98501 25.0144 8.64207 23.1376L6.22707 22.2901ZM7.29707 35.0201L4.75207 35.3026C5.00173 37.5388 5.51734 39.6822 6.23207 41.7251L8.64957 40.8801C7.99214 39.001 7.52357 37.0488 7.29707 35.0201ZM11.2621 46.2951L9.09707 47.6601C10.2698 49.521 11.6259 51.2652 13.1896 52.8276L14.9996 51.0176C13.586 49.6052 12.3447 48.013 11.2621 46.2951ZM19.7221 54.7476L18.3596 56.9151C20.2104 58.078 22.1989 59.0393 24.2971 59.7726L25.1396 57.3551C23.2236 56.6855 21.4117 55.8093 19.7221 54.7476Z" fill="black"/>
</g>
<defs>
<filter id="filter0_d_522_16127" x="-2" y="0" width="72" height="72" filterUnits="userSpaceOnUse" color-interpolation-filters="sRGB">
<feFlood flood-opacity="0" result="BackgroundImageFix"/>
<feColorMatrix in="SourceAlpha" type="matrix" values="0 0 0 0 0 0 0 0 0 0 0 0 0 0 0 0 0 0 127 0" result="hardAlpha"/>
<feOffset dy="4"/>
<feGaussianBlur stdDeviation="2"/>
<feComposite in2="hardAlpha" operator="out"/>
<feColorMatrix type="matrix" values="0 0 0 0 0 0 0 0 0 0 0 0 0 0 0 0 0 0 0.25 0"/>
<feBlend mode="normal" in2="BackgroundImageFix" result="effect1_dropShadow_522_16127"/>
<feBlend mode="normal" in="SourceGraphic" in2="effect1_dropShadow_522_16127" result="shape"/>
</filter>
</defs>
</svg>
