<svg width="20" height="20" viewBox="0 0 20 20" fill="none" xmlns="http://www.w3.org/2000/svg">
<path d="M5.75 0.5C4.79252 0.5 4 1.29252 4 2.25V4.94434L1.10059 6.66895L1.09961 6.66992C0.419314 7.07478 0 7.80983 0 8.60254V16.25C0 18.0361 1.46386 19.5 3.25 19.5H16.75C18.5361 19.5 20 18.0361 20 16.25V8.60254C20 7.80983 19.5807 7.07481 18.9004 6.66992L18.8994 6.66895L16 4.94434V2.25C16 1.29252 15.2075 0.5 14.25 0.5H5.75ZM7 2H13C13 2.83 13.67 3.5 14.5 3.5V5.35156C14.4998 5.36263 14.4998 5.3737 14.5 5.38477V9.72656L13.498 10.2139C13.4767 8.40511 11.8749 7 10 7C8.12512 7 6.5233 8.40511 6.50195 10.2139L5.5 9.72656V5.4873C5.51323 5.40679 5.51323 5.32466 5.5 5.24414V3.5C6.33 3.5 7 2.83 7 2ZM10 3C9.73478 3 9.48043 3.10536 9.29289 3.29289C9.10536 3.48043 9 3.73478 9 4C9 4.26522 9.10536 4.51957 9.29289 4.70711C9.48043 4.89464 9.73478 5 10 5C10.2652 5 10.5196 4.89464 10.7071 4.70711C10.8946 4.51957 11 4.26522 11 4C11 3.73478 10.8946 3.48043 10.7071 3.29289C10.5196 3.10536 10.2652 3 10 3ZM4 6.69043V8.99707L1.86719 7.95898L4 6.69043ZM16 6.69043L18.1328 7.95898L16 8.99707V6.69043ZM10 8.5C11.1505 8.5 12 9.31535 12 10.25C12 10.542 11.9172 10.8106 11.7705 11.0547L10 11.916L8.22949 11.0547C8.08278 10.8106 8 10.542 8 10.25C8 9.31535 8.8495 8.5 10 8.5ZM1.5 9.44922L4.32324 10.8223C4.38714 10.8671 4.45765 10.9017 4.53223 10.9248L9.67188 13.4248C9.77411 13.4745 9.88631 13.5004 10 13.5004C10.1137 13.5004 10.2259 13.4745 10.3281 13.4248L15.4697 10.9229C15.5457 10.8998 15.6176 10.8649 15.6826 10.8193L18.5 9.44922V16.25C18.5 17.2259 17.7259 18 16.75 18H3.25C2.27414 18 1.5 17.2259 1.5 16.25V9.44922Z" fill="black"/>
</svg>
