<svg width="30" height="30" viewBox="0 0 30 30" fill="none" xmlns="http://www.w3.org/2000/svg">
<path d="M21.5332 3.75001C21.3904 3.75367 21.2402 3.77198 21.0938 3.8086L5.85938 7.82227C4.62891 8.14454 3.75 9.27247 3.75 10.5469V23.4375C3.75 24.9793 5.02075 26.25 6.5625 26.25H23.4375C24.9792 26.25 26.25 24.9793 26.25 23.4375V11.25C26.25 9.70826 24.9792 8.43751 23.4375 8.43751H10.8984L21.5625 5.62501V7.50001H23.4375V5.62501C23.4375 4.57032 22.5403 3.73536 21.5332 3.75001ZM6.5625 10.3125H23.4375C23.9685 10.3125 24.375 10.719 24.375 11.25V23.4375C24.375 23.9685 23.9685 24.375 23.4375 24.375H6.5625C6.03149 24.375 5.625 23.9685 5.625 23.4375V11.25C5.625 10.719 6.03149 10.3125 6.5625 10.3125ZM21.0938 15.9375C20.3174 15.9375 19.6875 16.5674 19.6875 17.3438C19.6875 18.1201 20.3174 18.75 21.0938 18.75C21.8701 18.75 22.5 18.1201 22.5 17.3438C22.5 16.5674 21.8701 15.9375 21.0938 15.9375Z" fill="black"/>
</svg>
