<svg width="219" height="219" viewBox="0 0 219 219" fill="none" xmlns="http://www.w3.org/2000/svg">
<path d="M21.9 30.66C39.42 30.66 48.18 13.14 65.7 13.14C83.22 13.14 91.98 30.66 109.5 30.66C127.02 30.66 135.78 13.14 153.3 13.14C170.82 13.14 179.58 30.66 197.1 30.66M21.9 83.22C39.42 83.22 48.18 65.7 65.7 65.7C83.22 65.7 91.98 83.22 109.5 83.22C127.02 83.22 135.78 65.7 153.3 65.7C170.82 65.7 179.58 83.22 197.1 83.22M21.9 188.34C39.42 188.34 48.18 170.82 65.7 170.82C83.22 170.82 91.98 188.34 109.5 188.34C127.02 188.34 135.78 170.82 153.3 170.82C170.82 170.82 179.58 188.34 197.1 188.34M21.9 135.78C39.42 135.78 48.18 118.26 65.7 118.26C83.22 118.26 91.98 135.78 109.5 135.78C127.02 135.78 135.78 118.26 153.3 118.26C170.82 118.26 179.58 135.78 197.1 135.78" stroke="black" stroke-width="2" stroke-miterlimit="10" stroke-linecap="round" stroke-linejoin="round"/>
</svg>
