<svg width="60" height="60" viewBox="0 0 60 60" fill="none" xmlns="http://www.w3.org/2000/svg">
<path d="M43.0664 7.50001C42.7808 7.50734 42.4805 7.54396 42.1875 7.6172L11.7188 15.6445C9.25781 16.2891 7.5 18.5449 7.5 21.0938V46.875C7.5 49.9585 10.0415 52.5 13.125 52.5H46.875C49.9585 52.5 52.5 49.9585 52.5 46.875V22.5C52.5 19.4165 49.9585 16.875 46.875 16.875H21.7969L43.125 11.25V15H46.875V11.25C46.875 9.14064 45.0806 7.47072 43.0664 7.50001ZM13.125 20.625H46.875C47.937 20.625 48.75 21.438 48.75 22.5V46.875C48.75 47.937 47.937 48.75 46.875 48.75H13.125C12.063 48.75 11.25 47.937 11.25 46.875V22.5C11.25 21.438 12.063 20.625 13.125 20.625ZM42.1875 31.875C40.6348 31.875 39.375 33.1348 39.375 34.6875C39.375 36.2402 40.6348 37.5 42.1875 37.5C43.7402 37.5 45 36.2402 45 34.6875C45 33.1348 43.7402 31.875 42.1875 31.875Z" fill="black"/>
</svg>
