<svg width="27" height="27" viewBox="0 0 27 27" fill="none" xmlns="http://www.w3.org/2000/svg">
<path d="M5.61402 4.48901C5.39022 4.48907 5.17152 4.55587 4.98588 4.68088C4.80025 4.80588 4.65611 4.98341 4.57189 5.19076C4.48768 5.39811 4.46722 5.62586 4.51312 5.8449C4.55903 6.06394 4.66921 6.26432 4.82959 6.42041L11.9092 13.5L4.82959 20.5796C4.72162 20.6833 4.63542 20.8074 4.57604 20.9448C4.51666 21.0822 4.48528 21.2301 4.48376 21.3797C4.48224 21.5294 4.5106 21.6779 4.56717 21.8165C4.62375 21.955 4.7074 22.0809 4.81324 22.1868C4.91908 22.2926 5.04497 22.3763 5.18355 22.4328C5.32212 22.4894 5.47059 22.5178 5.62026 22.5162C5.76993 22.5147 5.9178 22.4833 6.05519 22.424C6.19258 22.3646 6.31675 22.2784 6.42041 22.1704L13.5 15.0908L20.5796 22.1704C20.6833 22.2784 20.8074 22.3646 20.9448 22.424C21.0822 22.4834 21.2301 22.5147 21.3797 22.5162C21.5294 22.5178 21.6779 22.4894 21.8165 22.4328C21.955 22.3763 22.0809 22.2926 22.1868 22.1868C22.2926 22.0809 22.3763 21.955 22.4328 21.8165C22.4894 21.6779 22.5178 21.5294 22.5163 21.3797C22.5147 21.2301 22.4834 21.0822 22.424 20.9448C22.3646 20.8074 22.2784 20.6833 22.1704 20.5796L15.0908 13.5L22.1704 6.42041C22.333 6.26239 22.444 6.05894 22.489 5.83673C22.5339 5.61453 22.5107 5.38392 22.4223 5.17513C22.334 4.96635 22.1846 4.78913 21.9938 4.6667C21.803 4.54426 21.5796 4.48233 21.353 4.48901C21.0608 4.49772 20.7834 4.61987 20.5796 4.82959L13.5 11.9092L6.42041 4.82959C6.31557 4.72182 6.1902 4.63616 6.0517 4.57766C5.91319 4.51917 5.76437 4.48902 5.61402 4.48901Z" fill="black"/>
</svg>
